<?xml version="1.0" encoding="UTF-8" standalone="no" ?>
<!DOCTYPE svg PUBLIC "-//W3C//DTD SVG 1.1//EN" "http://www.w3.org/Graphics/SVG/1.1/DTD/svg11.dtd">
<svg xmlns="http://www.w3.org/2000/svg" xmlns:xlink="http://www.w3.org/1999/xlink" version="1.1" width="1280" height="1024" viewBox="0 0 1280 1024" xml:space="preserve">
<desc>Created with Fabric.js 3.1.0</desc>
<defs>
</defs>
<g transform="matrix(1.9692780337941629 0 0 1.9692780337941629 640.0153846153846 512.012312418764)" id="background-logo"  >
<rect style="stroke: none; stroke-width: 1; stroke-dasharray: none; stroke-linecap: butt; stroke-dashoffset: 0; stroke-linejoin: miter; stroke-miterlimit: 4; fill: rgb(11,7,49); fill-rule: nonzero; opacity: 1;"  paint-order="stroke"  x="-325" y="-260" rx="0" ry="0" width="650" height="520" />
</g>
<g transform="matrix(1.9692780337941633 0 0 1.9692780337941629 893.556757024857 433.3279702846854)" id="text-logo-path"  >
<path style="stroke: none; stroke-width: 0; stroke-dasharray: none; stroke-linecap: butt; stroke-dashoffset: 0; stroke-linejoin: miter; stroke-miterlimit: 4; fill: rgb(68,228,228); fill-rule: nonzero; opacity: 1;"  paint-order="stroke"  transform=" translate(-151.25, 28.060000000000002)" d="M 34.97 0 L 3.76 0 L 3.76 -8.92 L 7.36 -9.24 Q 8.92 -9.4 9.75 -10.07 Q 10.58 -10.74 10.58 -12.3 L 10.58 -12.3 L 10.58 -63.49 L 4.3 -63.81 L 4.3 -73.15 L 34.43 -73.15 Q 50.6 -73.15 59.67 -64.56 Q 68.75 -55.97 68.75 -39.16 L 68.75 -39.16 Q 68.75 -30.78 66.92 -24.04 Q 65.1 -17.29 61.98 -12.86 Q 58.87 -8.43 54.52 -5.51 Q 50.17 -2.58 45.31 -1.29 Q 40.44 0 34.97 0 L 34.97 0 Z M 23.96 -62.47 L 23.96 -10.58 L 35.18 -10.58 Q 44.58 -10.58 49.9 -17.38 Q 55.21 -24.17 55.21 -37.17 L 55.21 -37.17 Q 55.21 -44.37 53.58 -49.44 Q 51.94 -54.52 48.9 -57.28 Q 45.87 -60.05 42.19 -61.26 Q 38.51 -62.47 33.78 -62.47 L 33.78 -62.47 L 23.96 -62.47 Z M 79.6 -46.08 L 76.05 -46.3 L 76.05 -55.32 L 95.44 -55.32 L 95.44 -20.46 Q 95.44 -14.66 97.08 -11.68 Q 98.72 -8.7 103.55 -8.7 L 103.55 -8.7 Q 109.03 -8.7 112.18 -11.9 Q 115.32 -15.09 115.32 -19.6 L 115.32 -19.6 L 115.32 -42.81 Q 115.32 -44.63 114.73 -45.31 Q 114.14 -45.98 112.58 -46.08 L 112.58 -46.08 L 109.09 -46.3 L 109.09 -55.32 L 128.42 -55.32 L 128.42 -12.19 Q 128.42 -10.42 128.99 -9.8 Q 129.55 -9.18 131.16 -9.02 L 131.16 -9.02 L 135.03 -8.7 L 135.03 0 L 117.2 0 L 117.2 -7.14 Q 114.3 -3.06 109.57 -0.81 Q 104.84 1.45 99.37 1.45 L 99.37 1.45 Q 82.34 1.45 82.34 -17.62 L 82.34 -17.62 L 82.34 -43.02 Q 82.34 -44.69 81.69 -45.33 Q 81.05 -45.98 79.6 -46.08 L 79.6 -46.08 Z M 142.39 -36.42 L 142.39 -36.42 Q 142.39 -44.58 144.38 -51.16 Q 146.36 -57.74 149.58 -62.01 Q 152.81 -66.28 157.19 -69.15 Q 161.56 -72.03 166.1 -73.23 Q 170.64 -74.44 175.47 -74.44 L 175.47 -74.44 Q 180.52 -74.44 185.01 -73.21 Q 189.49 -71.97 193.49 -69.1 Q 197.5 -66.23 200.37 -61.9 Q 203.24 -57.58 204.93 -51.08 Q 206.63 -44.58 206.63 -36.42 L 206.63 -36.42 Q 206.63 -22.18 200.66 -13.05 Q 194.7 -3.92 183.32 -0.97 L 183.32 -0.97 L 183.32 -0.64 Q 187.24 -0.43 190.75 0.67 Q 194.27 1.77 196.82 3.09 Q 199.38 4.4 202.03 5.64 Q 204.69 6.88 208.13 7.47 L 208.13 7.47 Q 210.06 7.79 212.16 7.79 L 212.16 7.79 Q 213.88 7.79 215.76 7.57 L 215.76 7.57 L 214.41 18.15 Q 212.8 18.32 211.19 18.32 L 211.19 18.32 L 205.5 17.78 Q 201.04 16.92 197.28 15.33 Q 193.52 13.75 190.03 12.08 Q 186.54 10.42 182.7 9.05 Q 178.86 7.68 175.47 7.47 L 175.47 7.47 Q 174.4 7.36 173.33 7.36 L 173.33 7.36 Q 170.32 7.36 167.04 8.06 L 167.04 8.06 L 168.54 0.11 Q 155.71 -1.56 149.05 -10.66 Q 142.39 -19.77 142.39 -36.42 Z M 156.14 -36.95 L 156.14 -36.95 Q 156.14 -32.82 156.57 -29.27 Q 157 -25.73 158.26 -21.99 Q 159.52 -18.26 161.54 -15.63 Q 163.55 -13 167.01 -11.33 Q 170.48 -9.67 175.04 -9.67 L 175.04 -9.67 Q 179.07 -9.67 182.24 -11.17 Q 185.41 -12.68 187.4 -15.15 Q 189.38 -17.62 190.67 -21.11 Q 191.96 -24.6 192.47 -28.25 Q 192.98 -31.9 192.98 -36.09 L 192.98 -36.09 Q 192.98 -38.67 192.8 -41.14 Q 192.61 -43.61 192.04 -46.35 Q 191.48 -49.09 190.62 -51.46 Q 189.76 -53.82 188.34 -56.02 Q 186.91 -58.22 185.09 -59.78 Q 183.26 -61.34 180.63 -62.25 Q 178 -63.16 174.83 -63.16 L 174.83 -63.16 Q 169.78 -63.16 166.02 -60.96 Q 162.26 -58.76 160.17 -54.92 Q 158.07 -51.08 157.1 -46.62 Q 156.14 -42.16 156.14 -36.95 Z M 241.22 0 L 214.63 0 L 214.63 -8.92 L 218.23 -9.24 Q 219.89 -9.4 220.67 -10.18 Q 221.45 -10.96 221.45 -12.89 L 221.45 -12.89 L 221.45 -63.49 L 215.17 -63.81 L 215.17 -73.15 L 241.75 -73.15 L 241.75 -64.24 L 238.15 -63.92 Q 236.6 -63.75 235.76 -62.98 Q 234.93 -62.2 234.93 -60.37 L 234.93 -60.37 L 234.93 -9.67 L 241.22 -9.35 L 241.22 0 Z M 249.54 -52.91 L 249.54 -52.91 Q 249.54 -62.9 256.52 -68.67 Q 263.51 -74.44 275.05 -74.44 L 275.05 -74.44 Q 286.12 -74.44 295.73 -69.99 L 295.73 -69.99 L 295.73 -53.44 L 284.51 -52.69 L 284.51 -59.08 Q 284.51 -60.75 284.08 -61.47 Q 283.65 -62.2 282.2 -62.68 L 282.2 -62.68 Q 279.24 -63.59 275.05 -63.59 L 275.05 -63.59 Q 269.84 -63.59 266.67 -61.28 Q 263.51 -58.97 263.51 -54.14 L 263.51 -54.14 Q 263.51 -52.91 263.75 -51.83 Q 263.99 -50.76 264.66 -49.84 Q 265.33 -48.93 265.92 -48.26 Q 266.51 -47.59 267.78 -46.89 Q 269.04 -46.19 269.84 -45.79 Q 270.65 -45.39 272.42 -44.77 Q 274.19 -44.15 275.11 -43.85 Q 276.02 -43.56 278.17 -42.92 L 278.17 -42.92 Q 281.71 -41.79 284.21 -40.77 Q 286.71 -39.75 289.66 -37.92 Q 292.62 -36.09 294.44 -33.92 Q 296.27 -31.74 297.5 -28.41 Q 298.74 -25.08 298.74 -21 L 298.74 -21 Q 298.74 -10.42 291.3 -4.48 Q 283.86 1.45 272.1 1.45 L 272.1 1.45 Q 259.58 1.45 249.86 -3.06 L 249.86 -3.06 L 249.86 -20.46 L 261.09 -21.22 L 261.09 -14.5 Q 261.09 -12.84 261.52 -12.11 Q 261.95 -11.39 263.4 -10.9 L 263.4 -10.9 Q 266.73 -9.88 271.35 -9.88 L 271.35 -9.88 Q 284.51 -9.88 284.51 -20.46 L 284.51 -20.46 Q 284.51 -22.5 283.73 -24.09 Q 282.95 -25.67 281.85 -26.72 Q 280.75 -27.77 278.71 -28.71 Q 276.67 -29.65 275 -30.19 Q 273.33 -30.72 270.54 -31.47 L 270.54 -31.47 Q 267.48 -32.28 265.17 -33.11 Q 262.86 -33.95 260.28 -35.18 Q 257.71 -36.42 255.91 -38.03 Q 254.11 -39.64 252.6 -41.73 Q 251.1 -43.83 250.32 -46.65 Q 249.54 -49.47 249.54 -52.91 Z" stroke-linecap="round" />
</g>
<g transform="matrix(1.9692780337941629 0 0 1.9692780337941629 893.0885073248762 600.1918325337186)" id="tagline-6184feb2-8857-4351-8dd1-a3456e03c8a3-logo-path"  >
<path style="stroke: none; stroke-width: 0; stroke-dasharray: none; stroke-linecap: butt; stroke-dashoffset: 0; stroke-linejoin: miter; stroke-miterlimit: 4; fill: rgb(178,250,241); fill-rule: nonzero; opacity: 1;"  paint-order="stroke"  transform=" translate(-123.13, 6.555)" d="M 9.87 0 L 0.87 0 L 0.87 -0.87 Q 1.75 -0.9 2.29 -1 Q 2.83 -1.1 3.13 -1.39 Q 3.43 -1.68 3.53 -2.17 Q 3.63 -2.67 3.63 -3.5 L 3.63 -3.5 L 3.63 -14.21 Q 3.63 -15.02 3.55 -15.51 Q 3.47 -16.01 3.23 -16.3 Q 2.99 -16.58 2.53 -16.69 Q 2.07 -16.79 1.33 -16.84 L 1.33 -16.84 L 1.33 -17.71 L 9.41 -17.71 Q 11.48 -17.71 13.24 -17.02 Q 15 -16.33 16.27 -15.11 Q 17.55 -13.89 18.26 -12.21 Q 18.98 -10.53 18.98 -8.56 L 18.98 -8.56 Q 18.98 -6.67 18.31 -5.09 Q 17.64 -3.52 16.43 -2.39 Q 15.23 -1.26 13.55 -0.63 Q 11.87 0 9.87 0 L 9.87 0 Z M 9.36 -16.58 L 6.44 -16.58 Q 6.05 -16.58 6.05 -16.19 L 6.05 -16.19 L 6.05 -3.75 Q 6.05 -1.13 9.48 -1.13 L 9.48 -1.13 Q 12.63 -1.13 14.31 -3 Q 15.98 -4.88 15.98 -8.51 L 15.98 -8.51 Q 15.98 -10.42 15.53 -11.91 Q 15.06 -13.41 14.2 -14.44 Q 13.34 -15.48 12.12 -16.03 Q 10.9 -16.58 9.36 -16.58 L 9.36 -16.58 Z M 30.98 -6.26 L 30.98 -8.51 Q 30.98 -9.45 30.94 -9.99 Q 30.89 -10.53 30.69 -10.82 Q 30.5 -11.11 30.12 -11.21 Q 29.74 -11.32 29.07 -11.38 L 29.07 -11.38 L 29.07 -12.19 L 33.23 -12.19 L 33.23 -5.13 Q 33.23 -3.82 33.27 -2.99 Q 33.3 -2.16 33.37 -1.75 L 33.37 -1.75 Q 33.42 -1.45 33.52 -1.28 Q 33.63 -1.1 33.83 -1 Q 34.04 -0.9 34.37 -0.86 Q 34.71 -0.83 35.24 -0.83 L 35.24 -0.83 L 35.24 -0.02 L 31.44 0.25 L 31.19 -2.51 L 31.1 -2.51 Q 30.22 -1.08 29.08 -0.43 Q 27.95 0.23 26.7 0.23 L 26.7 0.23 Q 25.74 0.23 24.83 -0.14 Q 23.92 -0.51 23.46 -1.13 L 23.46 -1.13 Q 23.07 -1.63 22.9 -2.53 Q 22.72 -3.43 22.72 -4.85 L 22.72 -4.85 L 22.72 -8.51 Q 22.72 -9.45 22.68 -9.99 Q 22.63 -10.53 22.44 -10.82 Q 22.24 -11.11 21.86 -11.21 Q 21.48 -11.32 20.82 -11.38 L 20.82 -11.38 L 20.82 -12.19 L 24.98 -12.19 L 24.98 -5.91 Q 24.98 -3.4 25.56 -2.28 Q 26.15 -1.15 27.44 -1.15 L 27.44 -1.15 Q 29.46 -1.15 30.59 -3.79 L 30.59 -3.79 Q 30.7 -4.07 30.77 -4.3 Q 30.84 -4.53 30.89 -4.81 Q 30.94 -5.08 30.96 -5.43 Q 30.98 -5.77 30.98 -6.26 L 30.98 -6.26 Z M 43.75 0 L 43.75 -0.8 Q 44.51 -0.8 44.79 -0.87 Q 45.08 -0.94 45.08 -1.06 L 45.08 -1.06 Q 45.06 -1.24 44.71 -1.72 Q 44.37 -2.21 43.82 -2.88 L 43.82 -2.88 L 41.38 -5.82 L 40.53 -5.01 L 40.53 -3.66 Q 40.53 -2.76 40.61 -2.22 Q 40.69 -1.68 40.91 -1.37 Q 41.12 -1.06 41.55 -0.94 Q 41.98 -0.83 42.67 -0.8 L 42.67 -0.8 L 42.67 0 L 36.13 0 L 36.13 -0.8 Q 36.82 -0.83 37.25 -0.94 Q 37.67 -1.06 37.92 -1.36 Q 38.16 -1.66 38.25 -2.16 Q 38.34 -2.67 38.34 -3.5 L 38.34 -3.5 L 38.34 -13.13 Q 38.34 -14.88 38.31 -15.78 Q 38.27 -16.68 38.07 -17 L 38.07 -17 Q 37.86 -17.32 37.38 -17.38 Q 36.89 -17.43 36.09 -17.43 L 36.09 -17.43 L 36.09 -18.22 L 40.53 -19.09 L 40.53 -6.46 L 42.67 -8.56 Q 43.7 -9.59 44.21 -10.09 Q 44.71 -10.58 44.71 -10.83 L 44.71 -10.83 Q 44.71 -11.09 44.23 -11.24 Q 43.75 -11.38 42.85 -11.38 L 42.85 -11.38 L 42.85 -12.19 L 48.83 -12.19 L 48.83 -11.38 Q 48.39 -11.38 48.07 -11.34 Q 47.75 -11.29 47.46 -11.15 Q 47.17 -11.02 46.85 -10.78 Q 46.53 -10.53 46.12 -10.17 L 46.12 -10.17 L 42.8 -7.22 L 47.36 -2.07 Q 47.68 -1.68 47.94 -1.44 Q 48.21 -1.2 48.47 -1.06 Q 48.74 -0.92 49.05 -0.86 Q 49.36 -0.8 49.8 -0.8 L 49.8 -0.8 L 49.8 0 L 43.75 0 Z M 60.35 -2.78 L 61.07 -2.14 Q 59.11 0.23 56.21 0.23 L 56.21 0.23 Q 54.86 0.23 53.75 -0.22 Q 52.65 -0.67 51.85 -1.48 Q 51.06 -2.3 50.62 -3.44 Q 50.19 -4.58 50.19 -5.96 L 50.19 -5.96 Q 50.19 -7.36 50.65 -8.56 Q 51.11 -9.75 51.95 -10.6 Q 52.79 -11.45 53.95 -11.94 Q 55.11 -12.42 56.49 -12.42 L 56.49 -12.42 Q 58.72 -12.42 59.94 -11.21 Q 61.16 -10 61.16 -7.75 L 61.16 -7.75 Q 61.16 -7.43 61.03 -7.36 Q 60.9 -7.29 60.44 -7.29 L 60.44 -7.29 L 52.88 -7.29 Q 52.83 -7.11 52.81 -6.84 Q 52.79 -6.58 52.79 -6.26 L 52.79 -6.26 Q 52.79 -5.06 53.07 -4.08 Q 53.36 -3.1 53.9 -2.42 Q 54.44 -1.72 55.19 -1.35 Q 55.94 -0.97 56.86 -0.97 L 56.86 -0.97 Q 57.82 -0.97 58.65 -1.39 Q 59.48 -1.82 60.35 -2.78 L 60.35 -2.78 Z M 53.04 -8.35 L 57.27 -8.35 Q 57.73 -8.35 58.01 -8.37 Q 58.28 -8.39 58.42 -8.46 Q 58.56 -8.53 58.6 -8.66 Q 58.65 -8.79 58.65 -8.99 L 58.65 -8.99 Q 58.65 -10.05 57.97 -10.68 Q 57.29 -11.32 56.12 -11.32 L 56.12 -11.32 Q 53.64 -11.32 53.04 -8.35 L 53.04 -8.35 Z M 85.45 -11.78 L 85.45 -7.13 Q 85.45 -5.31 85.09 -3.93 Q 84.73 -2.55 83.94 -1.63 Q 83.15 -0.71 81.88 -0.24 Q 80.62 0.23 78.82 0.23 L 78.82 0.23 Q 77.12 0.23 75.85 -0.1 Q 74.59 -0.44 73.74 -1.21 Q 72.89 -1.98 72.47 -3.22 Q 72.06 -4.46 72.06 -6.28 L 72.06 -6.28 L 72.06 -12.35 Q 72.06 -14.05 71.98 -14.97 Q 71.9 -15.89 71.51 -16.33 L 71.51 -16.33 Q 71.23 -16.63 70.76 -16.73 Q 70.29 -16.84 69.51 -16.84 L 69.51 -16.84 L 69.51 -17.71 L 77.35 -17.71 L 77.35 -16.84 Q 76.57 -16.84 76.08 -16.74 Q 75.6 -16.65 75.33 -16.28 L 75.33 -16.28 Q 75 -15.87 74.91 -14.96 Q 74.82 -14.05 74.82 -12.35 L 74.82 -12.35 L 74.82 -6.09 Q 74.82 -4.92 75.06 -4.01 Q 75.3 -3.1 75.85 -2.47 Q 76.41 -1.84 77.29 -1.52 Q 78.18 -1.2 79.47 -1.2 L 79.47 -1.2 Q 81.77 -1.2 82.92 -2.47 Q 84.07 -3.75 84.07 -6.23 L 84.07 -6.23 L 84.07 -11.78 Q 84.07 -13.82 83.9 -14.88 Q 83.74 -15.94 83.31 -16.38 L 83.31 -16.38 Q 82.98 -16.68 82.5 -16.76 Q 82.02 -16.84 81.31 -16.84 L 81.31 -16.84 L 81.31 -17.71 L 87.98 -17.71 L 87.98 -16.84 Q 87.24 -16.84 86.77 -16.72 Q 86.3 -16.61 86.02 -16.21 L 86.02 -16.21 Q 85.68 -15.73 85.56 -14.71 Q 85.45 -13.69 85.45 -11.78 L 85.45 -11.78 Z M 92.87 -6.69 L 92.87 -3.61 Q 92.87 -2.67 92.92 -2.13 Q 92.97 -1.59 93.16 -1.3 Q 93.36 -1.01 93.74 -0.92 Q 94.12 -0.83 94.78 -0.78 L 94.78 -0.78 L 94.78 0 L 88.76 0 L 88.76 -0.78 Q 89.4 -0.83 89.78 -0.92 Q 90.16 -1.01 90.37 -1.29 Q 90.57 -1.56 90.63 -2.07 Q 90.69 -2.58 90.69 -3.45 L 90.69 -3.45 L 90.69 -6.51 Q 90.69 -9.25 90.55 -9.84 L 90.55 -9.84 Q 90.48 -10.14 90.38 -10.34 Q 90.28 -10.53 90.07 -10.64 Q 89.86 -10.74 89.54 -10.78 Q 89.22 -10.81 88.71 -10.81 L 88.71 -10.81 L 88.71 -11.55 L 92.39 -12.42 L 92.67 -10.14 L 92.76 -10.14 Q 93.63 -11.22 94.81 -11.82 Q 95.98 -12.42 97.36 -12.42 L 97.36 -12.42 Q 98.42 -12.42 99.29 -12.07 Q 100.17 -11.73 100.63 -11.13 L 100.63 -11.13 Q 101.02 -10.6 101.18 -9.76 Q 101.34 -8.92 101.34 -7.45 L 101.34 -7.45 L 101.34 -3.61 Q 101.34 -2.67 101.4 -2.13 Q 101.45 -1.59 101.64 -1.3 Q 101.82 -1.01 102.2 -0.92 Q 102.58 -0.83 103.2 -0.78 L 103.2 -0.78 L 103.2 0 L 97.24 0 L 97.24 -0.78 Q 97.89 -0.8 98.27 -0.91 Q 98.65 -1.01 98.84 -1.29 Q 99.04 -1.56 99.1 -2.08 Q 99.15 -2.6 99.15 -3.45 L 99.15 -3.45 L 99.15 -6.49 Q 99.15 -7.8 99.02 -8.69 Q 98.88 -9.59 98.57 -10.14 Q 98.26 -10.7 97.75 -10.94 Q 97.24 -11.18 96.53 -11.18 L 96.53 -11.18 Q 95.5 -11.18 94.63 -10.64 Q 93.77 -10.1 93.29 -9.15 L 93.29 -9.15 Q 93.17 -8.92 93.09 -8.72 Q 93.01 -8.51 92.97 -8.23 Q 92.92 -7.96 92.9 -7.6 Q 92.87 -7.25 92.87 -6.69 L 92.87 -6.69 Z M 114.89 0.23 L 114.89 -1.93 L 114.79 -1.93 Q 113.97 -0.76 113.03 -0.26 Q 112.1 0.23 110.84 0.23 L 110.84 0.23 Q 109.53 0.23 108.43 -0.24 Q 107.34 -0.71 106.55 -1.55 Q 105.75 -2.39 105.31 -3.56 Q 104.86 -4.74 104.86 -6.12 L 104.86 -6.12 Q 104.86 -7.47 105.31 -8.64 Q 105.75 -9.8 106.55 -10.64 Q 107.34 -11.48 108.44 -11.95 Q 109.55 -12.42 110.84 -12.42 L 110.84 -12.42 Q 111.94 -12.42 112.8 -12.05 Q 113.67 -11.68 114.47 -10.88 L 114.47 -10.88 L 114.47 -13.22 Q 114.47 -14.54 114.44 -15.41 Q 114.4 -16.28 114.33 -16.61 L 114.33 -16.61 Q 114.22 -17.11 113.69 -17.32 Q 113.16 -17.53 111.96 -17.53 L 111.96 -17.53 L 111.96 -18.22 L 116.68 -19.09 L 116.68 -5.82 Q 116.68 -4.23 116.7 -3.21 Q 116.72 -2.19 116.84 -1.75 L 116.84 -1.75 Q 116.91 -1.47 117.01 -1.29 Q 117.12 -1.1 117.31 -1 Q 117.51 -0.9 117.84 -0.85 Q 118.17 -0.8 118.7 -0.8 L 118.7 -0.8 L 118.7 -0.02 L 114.89 0.23 Z M 114.42 -5.5 L 114.42 -7.01 Q 114.42 -8.21 114.3 -8.83 Q 114.17 -9.45 113.8 -9.91 L 113.8 -9.91 Q 113.28 -10.6 112.46 -10.96 Q 111.64 -11.32 110.84 -11.32 L 110.84 -11.32 Q 109.18 -11.32 108.32 -9.95 Q 107.46 -8.58 107.46 -6.23 L 107.46 -6.23 Q 107.46 -5.01 107.67 -4.03 Q 107.89 -3.04 108.32 -2.33 Q 108.74 -1.63 109.38 -1.25 Q 110.01 -0.87 110.84 -0.87 L 110.84 -0.87 Q 111.25 -0.87 111.68 -0.97 Q 112.1 -1.06 112.5 -1.25 Q 112.91 -1.45 113.25 -1.71 Q 113.6 -1.98 113.83 -2.32 L 113.83 -2.32 Q 114.15 -2.83 114.29 -3.54 Q 114.42 -4.25 114.42 -5.5 L 114.42 -5.5 Z M 130.57 -2.78 L 131.28 -2.14 Q 129.33 0.23 126.43 0.23 L 126.43 0.23 Q 125.07 0.23 123.97 -0.22 Q 122.87 -0.67 122.07 -1.48 Q 121.28 -2.3 120.84 -3.44 Q 120.41 -4.58 120.41 -5.96 L 120.41 -5.96 Q 120.41 -7.36 120.87 -8.56 Q 121.33 -9.75 122.16 -10.6 Q 123 -11.45 124.17 -11.94 Q 125.33 -12.42 126.71 -12.42 L 126.71 -12.42 Q 128.94 -12.42 130.16 -11.21 Q 131.38 -10 131.38 -7.75 L 131.38 -7.75 Q 131.38 -7.43 131.25 -7.36 Q 131.12 -7.29 130.66 -7.29 L 130.66 -7.29 L 123.1 -7.29 Q 123.05 -7.11 123.03 -6.84 Q 123 -6.58 123 -6.26 L 123 -6.26 Q 123 -5.06 123.29 -4.08 Q 123.58 -3.1 124.12 -2.42 Q 124.66 -1.72 125.41 -1.35 Q 126.16 -0.97 127.08 -0.97 L 127.08 -0.97 Q 128.04 -0.97 128.87 -1.39 Q 129.7 -1.82 130.57 -2.78 L 130.57 -2.78 Z M 123.26 -8.35 L 127.49 -8.35 Q 127.95 -8.35 128.22 -8.37 Q 128.5 -8.39 128.64 -8.46 Q 128.78 -8.53 128.82 -8.66 Q 128.87 -8.79 128.87 -8.99 L 128.87 -8.99 Q 128.87 -10.05 128.19 -10.68 Q 127.51 -11.32 126.34 -11.32 L 126.34 -11.32 Q 123.86 -11.32 123.26 -8.35 L 123.26 -8.35 Z M 137.56 -4.44 L 137.56 -3.66 Q 137.56 -2.71 137.61 -2.16 Q 137.66 -1.61 137.85 -1.32 Q 138.05 -1.03 138.41 -0.94 Q 138.78 -0.85 139.45 -0.8 L 139.45 -0.8 L 139.45 0 L 133.33 0 L 133.33 -0.8 Q 134 -0.83 134.39 -0.93 Q 134.78 -1.03 134.99 -1.31 Q 135.19 -1.59 135.25 -2.1 Q 135.31 -2.62 135.31 -3.5 L 135.31 -3.5 L 135.31 -6.19 Q 135.31 -7.75 135.27 -8.63 Q 135.24 -9.5 135.04 -9.91 Q 134.85 -10.33 134.44 -10.41 Q 134.02 -10.49 133.28 -10.49 L 133.28 -10.49 L 133.28 -11.29 L 137.31 -12.17 L 137.63 -9.31 L 137.72 -9.31 Q 138.02 -10 138.47 -10.58 Q 138.92 -11.15 139.45 -11.56 Q 139.98 -11.96 140.55 -12.19 Q 141.13 -12.42 141.73 -12.42 L 141.73 -12.42 Q 142.46 -12.42 142.89 -12.06 Q 143.31 -11.71 143.31 -11.11 L 143.31 -11.11 Q 143.31 -10.56 142.97 -10.25 Q 142.62 -9.94 141.98 -9.94 L 141.98 -9.94 Q 141.61 -9.94 141.36 -10.03 Q 141.1 -10.12 140.91 -10.22 Q 140.71 -10.33 140.54 -10.42 Q 140.37 -10.51 140.16 -10.51 L 140.16 -10.51 Q 139.54 -10.51 138.92 -9.72 Q 138.3 -8.92 137.95 -7.71 L 137.95 -7.71 Q 137.77 -7.04 137.67 -6.2 Q 137.56 -5.36 137.56 -4.44 L 137.56 -4.44 Z M 149.73 -4.95 L 149.73 -4.95 Q 150.7 -4.95 151.24 -5.82 Q 151.78 -6.69 151.78 -8.28 L 151.78 -8.28 Q 151.78 -9.84 151.24 -10.71 Q 150.7 -11.57 149.71 -11.57 L 149.71 -11.57 Q 148.72 -11.57 148.13 -10.7 Q 147.54 -9.82 147.54 -8.3 L 147.54 -8.3 Q 147.54 -6.79 148.14 -5.87 Q 148.74 -4.95 149.73 -4.95 Z M 148.47 -2.25 L 148.47 -2.25 Q 149.02 -2.21 149.48 -2.16 Q 149.94 -2.12 150.39 -2.07 Q 150.83 -2.02 151.28 -1.96 Q 151.73 -1.89 152.26 -1.82 L 152.26 -1.82 Q 153.92 -1.56 154.92 -0.54 Q 155.92 0.48 155.92 2.02 L 155.92 2.02 Q 155.92 3.96 154.39 4.97 Q 152.86 5.98 149.96 5.98 L 149.96 5.98 Q 148.67 5.98 147.6 5.75 Q 146.53 5.52 145.77 5.09 Q 145.01 4.67 144.59 4.07 Q 144.16 3.47 144.16 2.76 L 144.16 2.76 Q 144.16 2.28 144.32 1.86 Q 144.49 1.45 144.76 1.14 Q 145.04 0.83 145.42 0.64 Q 145.8 0.46 146.21 0.46 L 146.21 0.46 Q 146.99 0.46 147.61 0.94 L 147.61 0.94 Q 146.99 1.08 146.6 1.62 Q 146.21 2.16 146.21 2.85 L 146.21 2.85 Q 146.21 3.86 147.21 4.42 Q 148.21 4.97 150.05 4.97 L 150.05 4.97 Q 153.98 4.97 153.98 2.55 L 153.98 2.55 Q 153.98 1.63 153.36 1.02 Q 152.74 0.41 151.89 0.3 L 151.89 0.3 Q 151.34 0.23 150.75 0.15 Q 150.17 0.07 149.6 0 Q 149.04 -0.07 148.56 -0.11 Q 148.07 -0.16 147.78 -0.21 L 147.78 -0.21 Q 146.49 -0.34 145.82 -0.9 Q 145.15 -1.45 145.15 -2.42 L 145.15 -2.42 Q 145.15 -3.22 145.82 -3.84 Q 146.49 -4.46 147.5 -4.62 L 147.5 -4.62 L 147.5 -4.71 Q 146.99 -4.92 146.56 -5.3 Q 146.12 -5.68 145.81 -6.16 Q 145.5 -6.65 145.31 -7.21 Q 145.13 -7.77 145.13 -8.37 L 145.13 -8.37 Q 145.13 -9.25 145.46 -9.98 Q 145.8 -10.72 146.41 -11.26 Q 147.02 -11.8 147.84 -12.11 Q 148.67 -12.42 149.66 -12.42 L 149.66 -12.42 Q 150.67 -12.42 151.57 -12.11 Q 152.47 -11.8 153.11 -11.2 L 153.11 -11.2 Q 153.89 -11.85 154.49 -12.13 Q 155.09 -12.42 155.62 -12.42 L 155.62 -12.42 Q 156.45 -12.42 156.94 -12.04 Q 157.44 -11.66 157.44 -11.02 L 157.44 -11.02 Q 157.44 -10.63 157.17 -10.4 Q 156.91 -10.17 156.51 -10.17 L 156.51 -10.17 Q 156.19 -10.17 155.99 -10.28 Q 155.78 -10.4 155.61 -10.52 Q 155.43 -10.65 155.25 -10.76 Q 155.07 -10.88 154.79 -10.88 L 154.79 -10.88 Q 154.24 -10.88 153.66 -10.49 L 153.66 -10.49 Q 154.22 -9.64 154.22 -8.35 L 154.22 -8.35 Q 154.22 -6.39 153 -5.28 Q 151.78 -4.16 149.34 -3.98 L 149.34 -3.98 Q 147.94 -3.86 147.38 -3.68 Q 146.83 -3.5 146.83 -3.01 L 146.83 -3.01 Q 146.83 -2.65 147.25 -2.47 Q 147.66 -2.3 148.47 -2.25 Z M 162.31 -4.44 L 162.31 -3.66 Q 162.31 -2.71 162.36 -2.16 Q 162.4 -1.61 162.6 -1.32 Q 162.79 -1.03 163.16 -0.94 Q 163.53 -0.85 164.2 -0.8 L 164.2 -0.8 L 164.2 0 L 158.08 0 L 158.08 -0.8 Q 158.75 -0.83 159.14 -0.93 Q 159.53 -1.03 159.73 -1.31 Q 159.94 -1.59 160 -2.1 Q 160.06 -2.62 160.06 -3.5 L 160.06 -3.5 L 160.06 -6.19 Q 160.06 -7.75 160.02 -8.63 Q 159.99 -9.5 159.79 -9.91 Q 159.6 -10.33 159.18 -10.41 Q 158.77 -10.49 158.03 -10.49 L 158.03 -10.49 L 158.03 -11.29 L 162.06 -12.17 L 162.38 -9.31 L 162.47 -9.31 Q 162.77 -10 163.22 -10.58 Q 163.67 -11.15 164.2 -11.56 Q 164.73 -11.96 165.3 -12.19 Q 165.88 -12.42 166.47 -12.42 L 166.47 -12.42 Q 167.21 -12.42 167.64 -12.06 Q 168.06 -11.71 168.06 -11.11 L 168.06 -11.11 Q 168.06 -10.56 167.72 -10.25 Q 167.37 -9.94 166.73 -9.94 L 166.73 -9.94 Q 166.36 -9.94 166.11 -10.03 Q 165.85 -10.12 165.66 -10.22 Q 165.46 -10.33 165.29 -10.42 Q 165.12 -10.51 164.91 -10.51 L 164.91 -10.51 Q 164.29 -10.51 163.67 -9.72 Q 163.05 -8.92 162.7 -7.71 L 162.7 -7.71 Q 162.52 -7.04 162.41 -6.2 Q 162.31 -5.36 162.31 -4.44 L 162.31 -4.44 Z M 176.2 -4.99 L 176.2 -6.81 Q 174.89 -6.3 173.98 -5.82 Q 173.07 -5.34 172.52 -4.85 Q 171.97 -4.37 171.73 -3.89 Q 171.49 -3.4 171.49 -2.9 L 171.49 -2.9 Q 171.49 -2.14 171.99 -1.66 Q 172.5 -1.17 173.33 -1.17 L 173.33 -1.17 Q 173.93 -1.17 174.44 -1.47 Q 174.96 -1.77 175.35 -2.29 Q 175.74 -2.81 175.97 -3.51 Q 176.2 -4.21 176.2 -4.99 L 176.2 -4.99 Z M 172.89 -6.35 L 176.2 -7.8 L 176.2 -8.74 Q 176.2 -11.55 173.81 -11.55 L 173.81 -11.55 Q 173.42 -11.55 173.14 -11.48 Q 172.87 -11.41 172.68 -11.25 Q 172.5 -11.09 172.35 -10.79 Q 172.2 -10.49 172.06 -10.05 L 172.06 -10.05 Q 171.81 -9.38 171.57 -9.17 Q 171.33 -8.95 170.87 -8.95 L 170.87 -8.95 Q 169.72 -8.95 169.72 -10.1 L 169.72 -10.1 Q 169.72 -11.2 170.89 -11.81 Q 172.06 -12.42 174.22 -12.42 L 174.22 -12.42 Q 176.52 -12.42 177.49 -11.6 Q 178.46 -10.79 178.46 -8.83 L 178.46 -8.83 L 178.46 -3.68 Q 178.46 -1.06 179.49 -1.06 L 179.49 -1.06 Q 179.81 -1.06 180.11 -1.14 Q 180.41 -1.22 180.62 -1.56 L 180.62 -1.56 L 180.94 -1.01 Q 180.66 -0.48 179.93 -0.13 Q 179.19 0.23 178.39 0.23 L 178.39 0.23 Q 177.38 0.23 176.88 -0.41 Q 176.39 -1.06 176.39 -2.23 L 176.39 -2.23 L 176.27 -2.23 Q 175.67 -1.1 174.62 -0.45 Q 173.56 0.21 172.27 0.21 L 172.27 0.21 Q 170.82 0.21 169.99 -0.53 Q 169.16 -1.26 169.16 -2.51 L 169.16 -2.51 Q 169.16 -3.06 169.36 -3.56 Q 169.56 -4.07 169.99 -4.53 Q 170.43 -4.99 171.14 -5.44 Q 171.86 -5.89 172.89 -6.35 L 172.89 -6.35 Z M 192.05 0.23 L 192.05 -1.93 L 191.96 -1.93 Q 191.13 -0.76 190.2 -0.26 Q 189.27 0.23 188 0.23 L 188 0.23 Q 186.69 0.23 185.6 -0.24 Q 184.51 -0.71 183.71 -1.55 Q 182.92 -2.39 182.47 -3.56 Q 182.02 -4.74 182.02 -6.12 L 182.02 -6.12 Q 182.02 -7.47 182.47 -8.64 Q 182.92 -9.8 183.71 -10.64 Q 184.51 -11.48 185.61 -11.95 Q 186.71 -12.42 188 -12.42 L 188 -12.42 Q 189.11 -12.42 189.97 -12.05 Q 190.83 -11.68 191.64 -10.88 L 191.64 -10.88 L 191.64 -13.22 Q 191.64 -14.54 191.6 -15.41 Q 191.57 -16.28 191.5 -16.61 L 191.5 -16.61 Q 191.38 -17.11 190.85 -17.32 Q 190.32 -17.53 189.13 -17.53 L 189.13 -17.53 L 189.13 -18.22 L 193.84 -19.09 L 193.84 -5.82 Q 193.84 -4.23 193.87 -3.21 Q 193.89 -2.19 194 -1.75 L 194 -1.75 Q 194.07 -1.47 194.18 -1.29 Q 194.28 -1.1 194.48 -1 Q 194.67 -0.9 195.01 -0.85 Q 195.34 -0.8 195.87 -0.8 L 195.87 -0.8 L 195.87 -0.02 L 192.05 0.23 Z M 191.59 -5.5 L 191.59 -7.01 Q 191.59 -8.21 191.46 -8.83 Q 191.34 -9.45 190.97 -9.91 L 190.97 -9.91 Q 190.44 -10.6 189.62 -10.96 Q 188.81 -11.32 188 -11.32 L 188 -11.32 Q 186.35 -11.32 185.48 -9.95 Q 184.62 -8.58 184.62 -6.23 L 184.62 -6.23 Q 184.62 -5.01 184.84 -4.03 Q 185.06 -3.04 185.48 -2.33 Q 185.91 -1.63 186.54 -1.25 Q 187.17 -0.87 188 -0.87 L 188 -0.87 Q 188.42 -0.87 188.84 -0.97 Q 189.27 -1.06 189.67 -1.25 Q 190.07 -1.45 190.42 -1.71 Q 190.76 -1.98 190.99 -2.32 L 190.99 -2.32 Q 191.31 -2.83 191.45 -3.54 Q 191.59 -4.25 191.59 -5.5 L 191.59 -5.5 Z M 207.09 -6.26 L 207.09 -8.51 Q 207.09 -9.45 207.05 -9.99 Q 207 -10.53 206.8 -10.82 Q 206.61 -11.11 206.23 -11.21 Q 205.85 -11.32 205.18 -11.38 L 205.18 -11.38 L 205.18 -12.19 L 209.35 -12.19 L 209.35 -5.13 Q 209.35 -3.82 209.38 -2.99 Q 209.41 -2.16 209.48 -1.75 L 209.48 -1.75 Q 209.53 -1.45 209.63 -1.28 Q 209.74 -1.1 209.94 -1 Q 210.15 -0.9 210.48 -0.86 Q 210.82 -0.83 211.35 -0.83 L 211.35 -0.83 L 211.35 -0.02 L 207.55 0.25 L 207.3 -2.51 L 207.21 -2.51 Q 206.33 -1.08 205.19 -0.43 Q 204.06 0.23 202.81 0.23 L 202.81 0.23 Q 201.85 0.23 200.94 -0.14 Q 200.03 -0.51 199.57 -1.13 L 199.57 -1.13 Q 199.18 -1.63 199.01 -2.53 Q 198.83 -3.43 198.83 -4.85 L 198.83 -4.85 L 198.83 -8.51 Q 198.83 -9.45 198.79 -9.99 Q 198.74 -10.53 198.55 -10.82 Q 198.35 -11.11 197.97 -11.21 Q 197.59 -11.32 196.93 -11.38 L 196.93 -11.38 L 196.93 -12.19 L 201.09 -12.19 L 201.09 -5.91 Q 201.09 -3.4 201.68 -2.28 Q 202.26 -1.15 203.55 -1.15 L 203.55 -1.15 Q 205.57 -1.15 206.7 -3.79 L 206.7 -3.79 Q 206.82 -4.07 206.88 -4.3 Q 206.95 -4.53 207 -4.81 Q 207.05 -5.08 207.07 -5.43 Q 207.09 -5.77 207.09 -6.26 L 207.09 -6.26 Z M 219.88 -4.99 L 219.88 -6.81 Q 218.57 -6.3 217.66 -5.82 Q 216.75 -5.34 216.2 -4.85 Q 215.65 -4.37 215.41 -3.89 Q 215.16 -3.4 215.16 -2.9 L 215.16 -2.9 Q 215.16 -2.14 215.67 -1.66 Q 216.18 -1.17 217 -1.17 L 217 -1.17 Q 217.6 -1.17 218.12 -1.47 Q 218.64 -1.77 219.03 -2.29 Q 219.42 -2.81 219.65 -3.51 Q 219.88 -4.21 219.88 -4.99 L 219.88 -4.99 Z M 216.57 -6.35 L 219.88 -7.8 L 219.88 -8.74 Q 219.88 -11.55 217.49 -11.55 L 217.49 -11.55 Q 217.1 -11.55 216.82 -11.48 Q 216.54 -11.41 216.36 -11.25 Q 216.18 -11.09 216.03 -10.79 Q 215.88 -10.49 215.74 -10.05 L 215.74 -10.05 Q 215.49 -9.38 215.25 -9.17 Q 215 -8.95 214.54 -8.95 L 214.54 -8.95 Q 213.39 -8.95 213.39 -10.1 L 213.39 -10.1 Q 213.39 -11.2 214.57 -11.81 Q 215.74 -12.42 217.9 -12.42 L 217.9 -12.42 Q 220.2 -12.42 221.17 -11.6 Q 222.13 -10.79 222.13 -8.83 L 222.13 -8.83 L 222.13 -3.68 Q 222.13 -1.06 223.17 -1.06 L 223.17 -1.06 Q 223.49 -1.06 223.79 -1.14 Q 224.09 -1.22 224.3 -1.56 L 224.3 -1.56 L 224.62 -1.01 Q 224.34 -0.48 223.61 -0.13 Q 222.87 0.23 222.06 0.23 L 222.06 0.23 Q 221.05 0.23 220.56 -0.41 Q 220.06 -1.06 220.06 -2.23 L 220.06 -2.23 L 219.95 -2.23 Q 219.35 -1.1 218.29 -0.45 Q 217.23 0.21 215.95 0.21 L 215.95 0.21 Q 214.5 0.21 213.67 -0.53 Q 212.84 -1.26 212.84 -2.51 L 212.84 -2.51 Q 212.84 -3.06 213.04 -3.56 Q 213.23 -4.07 213.67 -4.53 Q 214.11 -4.99 214.82 -5.44 Q 215.53 -5.89 216.57 -6.35 L 216.57 -6.35 Z M 226.89 -10.74 L 225.51 -10.74 L 225.51 -11.59 Q 226.73 -12.3 227.42 -13.02 Q 228.11 -13.73 228.48 -14.72 L 228.48 -14.72 L 229.15 -14.72 L 229.15 -11.82 L 232.23 -11.82 L 232.23 -10.74 L 229.15 -10.74 L 229.15 -3.75 Q 229.15 -2.94 229.23 -2.39 Q 229.31 -1.84 229.49 -1.51 Q 229.68 -1.17 229.98 -1.03 Q 230.28 -0.9 230.74 -0.9 L 230.74 -0.9 Q 231.31 -0.9 231.71 -1.14 Q 232.12 -1.38 232.51 -1.96 L 232.51 -1.96 L 233.08 -1.52 Q 232.76 -0.67 231.97 -0.22 Q 231.17 0.23 230 0.23 L 230 0.23 Q 228.48 0.23 227.69 -0.49 Q 226.89 -1.22 226.89 -2.58 L 226.89 -2.58 L 226.89 -10.74 Z M 244.58 -2.78 L 245.29 -2.14 Q 243.34 0.23 240.44 0.23 L 240.44 0.23 Q 239.08 0.23 237.98 -0.22 Q 236.88 -0.67 236.08 -1.48 Q 235.29 -2.3 234.85 -3.44 Q 234.42 -4.58 234.42 -5.96 L 234.42 -5.96 Q 234.42 -7.36 234.88 -8.56 Q 235.34 -9.75 236.18 -10.6 Q 237.01 -11.45 238.18 -11.94 Q 239.34 -12.42 240.72 -12.42 L 240.72 -12.42 Q 242.95 -12.42 244.17 -11.21 Q 245.39 -10 245.39 -7.75 L 245.39 -7.75 Q 245.39 -7.43 245.26 -7.36 Q 245.13 -7.29 244.67 -7.29 L 244.67 -7.29 L 237.11 -7.29 Q 237.06 -7.11 237.04 -6.84 Q 237.01 -6.58 237.01 -6.26 L 237.01 -6.26 Q 237.01 -5.06 237.3 -4.08 Q 237.59 -3.1 238.13 -2.42 Q 238.67 -1.72 239.42 -1.35 Q 240.17 -0.97 241.09 -0.97 L 241.09 -0.97 Q 242.05 -0.97 242.88 -1.39 Q 243.71 -1.82 244.58 -2.78 L 244.58 -2.78 Z M 237.27 -8.35 L 241.5 -8.35 Q 241.96 -8.35 242.24 -8.37 Q 242.51 -8.39 242.65 -8.46 Q 242.79 -8.53 242.83 -8.66 Q 242.88 -8.79 242.88 -8.99 L 242.88 -8.99 Q 242.88 -10.05 242.2 -10.68 Q 241.52 -11.32 240.35 -11.32 L 240.35 -11.32 Q 237.87 -11.32 237.27 -8.35 L 237.27 -8.35 Z" stroke-linecap="round" />
</g>
<g transform="matrix(-1.4687483693805998 0 0 -1.4687483693805998 298.6010162195951 512.1541942288599)" style="" id="logo-logo"  >
	<g transform="matrix(0 -0.3517900649153087 -0.3517900649153087 0 -27.47673891524255 2.6718455430317363)"  >
<linearGradient id="SVGID_208712" gradientUnits="userSpaceOnUse" gradientTransform="matrix(1 0 0 1 1266.1499999999996 493.69899999999984)"  x1="0" y1="0" x2="0" y2="562">
<stop offset="0%" style="stop-color:rgb(23,234,217);stop-opacity: 1"/>
<stop offset="100%" style="stop-color:rgb(96,120,234);stop-opacity: 1"/>
</linearGradient>
<path style="stroke: none; stroke-width: 1; stroke-dasharray: none; stroke-linecap: butt; stroke-dashoffset: 0; stroke-linejoin: miter; stroke-miterlimit: 4; fill: url(#SVGID_208712); fill-rule: nonzero; opacity: 1;"  paint-order="stroke"  transform=" translate(-1617.475, -774.4994999999999)" d="m 1625.06 1055.3 c -198.2 0 -358.91 -160.698 -358.91 -358.909 c 0 -24.418 2.49 -48.223 7.17 -71.27 h 8.68 v -0.594 h 470.69 l -43.08 -74.523 h -169.12 l -25.38 43.976 h -56.54 h -8.46 l 57.9 -100.281 h 234.1 l 108.01 187.125 h -59.67 h -5.28 h -320.21 h -64.96 h -76.43 c -0.32 5.203 -1.1 10.289 -1.1 15.567 c 0 166.851 135.72 302.593 302.59 302.593 c 130.53 0 240.96 -83.523 283.36 -199.57 h 57.66 h 2.72 C 1924.47 947.395 1787.43 1055.3 1625.06 1055.3" stroke-linecap="round" />
</g>
	<g transform="matrix(0 -0.3517900649153087 -0.3517900649153087 0 27.480784500989103 -2.6419433875139475)"  >
<path style="stroke: none; stroke-width: 1; stroke-dasharray: none; stroke-linecap: butt; stroke-dashoffset: 0; stroke-linejoin: miter; stroke-miterlimit: 4; fill: rgb(178,250,241); fill-rule: nonzero; opacity: 1;"  paint-order="stroke"  transform=" translate(-1632.58, -618.277)" d="m 1976.76 768.273 h -479.25 l 42.98 74.497 h 169.12 l 25.02 -43.356 h 65.01 l -57.53 99.652 h -234.1 L 1400.04 711.969 h 49.1 h 15.89 h 461.53 c 0.33 -5.199 1.09 -10.289 1.09 -15.578 c 0 -166.864 -135.72 -302.621 -302.59 -302.621 c -130.74 0 -241.35 83.859 -283.51 200.21 h -1.39 h -56.5 h -2.49 c 44.14 -148.296 181.28 -256.492 343.89 -256.492 c 198.21 0 358.93 160.664 358.93 358.903 c 0 24.621 -2.57 48.66 -7.23 71.882" stroke-linecap="round" />
</g>
</g>
<g transform="matrix(1.9692780337941629 0 0 1.9692780337941629 894.3567223786395 672.7160564647506)" id="tagline-cc0f7846-4101-4792-9d4b-cc682b015378-logo-path"  >
<path style="stroke: none; stroke-width: 0; stroke-dasharray: none; stroke-linecap: butt; stroke-dashoffset: 0; stroke-linejoin: miter; stroke-miterlimit: 4; fill: rgb(179,251,243); fill-rule: nonzero; opacity: 1;"  paint-order="stroke"  transform=" translate(-180.46500000000003, 6.555)" d="M 10.9 -17.94 L 10.9 -17.94 Q 12.93 -17.94 14.67 -17.23 Q 16.42 -16.51 17.71 -15.27 Q 19 -14.03 19.73 -12.34 Q 20.47 -10.65 20.47 -8.69 L 20.47 -8.69 Q 20.47 -6.53 19.58 -4.75 Q 18.7 -2.97 17.23 -1.68 L 17.23 -1.68 Q 16.26 -0.85 15.06 -0.29 Q 13.87 0.28 12.56 0.76 L 12.56 0.76 Q 11.94 1.01 11.35 1.29 Q 10.76 1.56 10.28 1.93 L 10.28 1.93 L 10.28 2.02 Q 10.42 2 10.66 1.99 Q 10.9 1.98 11.09 1.98 L 11.09 1.98 Q 12.12 1.98 13.02 2.24 Q 13.91 2.51 14.77 2.84 Q 15.62 3.17 16.47 3.44 Q 17.32 3.7 18.26 3.7 L 18.26 3.7 Q 19.34 3.7 19.89 3.24 Q 20.45 2.78 20.79 1.66 L 20.79 1.66 L 21.37 1.66 Q 21.41 1.86 21.44 2.12 Q 21.46 2.37 21.46 2.62 L 21.46 2.62 Q 21.46 3.36 21.15 3.97 Q 20.84 4.58 20.3 5.03 Q 19.76 5.47 19.02 5.73 Q 18.29 5.98 17.43 5.98 L 17.43 5.98 Q 16.15 5.98 15.05 5.49 Q 13.96 4.99 12.98 4.4 Q 12.01 3.82 11.11 3.32 Q 10.21 2.83 9.34 2.83 L 9.34 2.83 Q 8.74 2.83 8.37 3.06 Q 8 3.29 7.71 3.58 Q 7.41 3.86 7.14 4.09 Q 6.88 4.32 6.49 4.32 L 6.49 4.32 Q 5.82 4.32 5.82 3.75 L 5.82 3.75 Q 5.82 3.59 5.87 3.47 Q 5.91 3.36 6.06 3.21 Q 6.21 3.06 6.51 2.86 Q 6.81 2.67 7.34 2.37 L 7.34 2.37 L 10.33 0.67 Q 8.39 0.6 6.74 -0.15 Q 5.08 -0.9 3.89 -2.15 Q 2.69 -3.4 2.01 -5.07 Q 1.33 -6.74 1.33 -8.65 L 1.33 -8.65 Q 1.33 -10.63 2.07 -12.33 Q 2.81 -14.03 4.09 -15.27 Q 5.38 -16.51 7.13 -17.23 Q 8.88 -17.94 10.9 -17.94 Z M 10.9 -0.46 L 10.9 -0.46 Q 12.42 -0.46 13.63 -1.03 Q 14.83 -1.61 15.7 -2.68 Q 16.56 -3.75 17.02 -5.26 Q 17.48 -6.76 17.48 -8.65 L 17.48 -8.65 Q 17.48 -10.49 17.02 -11.97 Q 16.56 -13.46 15.71 -14.5 Q 14.86 -15.55 13.64 -16.11 Q 12.42 -16.68 10.9 -16.68 L 10.9 -16.68 Q 9.38 -16.68 8.16 -16.11 Q 6.95 -15.55 6.09 -14.5 Q 5.24 -13.46 4.78 -11.97 Q 4.32 -10.49 4.32 -8.65 L 4.32 -8.65 Q 4.32 -6.76 4.78 -5.26 Q 5.24 -3.75 6.09 -2.68 Q 6.95 -1.61 8.16 -1.03 Q 9.38 -0.46 10.9 -0.46 Z M 32.45 -6.26 L 32.45 -8.51 Q 32.45 -9.45 32.41 -9.99 Q 32.36 -10.53 32.17 -10.82 Q 31.97 -11.11 31.59 -11.21 Q 31.21 -11.32 30.54 -11.38 L 30.54 -11.38 L 30.54 -12.19 L 34.71 -12.19 L 34.71 -5.13 Q 34.71 -3.82 34.74 -2.99 Q 34.78 -2.16 34.84 -1.75 L 34.84 -1.75 Q 34.89 -1.45 34.99 -1.28 Q 35.1 -1.1 35.3 -1 Q 35.51 -0.9 35.85 -0.86 Q 36.18 -0.83 36.71 -0.83 L 36.71 -0.83 L 36.71 -0.02 L 32.91 0.25 L 32.66 -2.51 L 32.57 -2.51 Q 31.69 -1.08 30.56 -0.43 Q 29.42 0.23 28.17 0.23 L 28.17 0.23 Q 27.21 0.23 26.3 -0.14 Q 25.39 -0.51 24.93 -1.13 L 24.93 -1.13 Q 24.54 -1.63 24.37 -2.53 Q 24.2 -3.43 24.2 -4.85 L 24.2 -4.85 L 24.2 -8.51 Q 24.2 -9.45 24.15 -9.99 Q 24.1 -10.53 23.91 -10.82 Q 23.71 -11.11 23.33 -11.21 Q 22.95 -11.32 22.29 -11.38 L 22.29 -11.38 L 22.29 -12.19 L 26.45 -12.19 L 26.45 -5.91 Q 26.45 -3.4 27.04 -2.28 Q 27.62 -1.15 28.91 -1.15 L 28.91 -1.15 Q 30.93 -1.15 32.06 -3.79 L 32.06 -3.79 Q 32.18 -4.07 32.25 -4.3 Q 32.31 -4.53 32.36 -4.81 Q 32.41 -5.08 32.43 -5.43 Q 32.45 -5.77 32.45 -6.26 L 32.45 -6.26 Z M 45.24 -4.99 L 45.24 -6.81 Q 43.93 -6.3 43.02 -5.82 Q 42.11 -5.34 41.56 -4.85 Q 41.01 -4.37 40.77 -3.89 Q 40.53 -3.4 40.53 -2.9 L 40.53 -2.9 Q 40.53 -2.14 41.03 -1.66 Q 41.54 -1.17 42.37 -1.17 L 42.37 -1.17 Q 42.96 -1.17 43.48 -1.47 Q 44 -1.77 44.39 -2.29 Q 44.78 -2.81 45.01 -3.51 Q 45.24 -4.21 45.24 -4.99 L 45.24 -4.99 Z M 41.93 -6.35 L 45.24 -7.8 L 45.24 -8.74 Q 45.24 -11.55 42.85 -11.55 L 42.85 -11.55 Q 42.46 -11.55 42.18 -11.48 Q 41.91 -11.41 41.72 -11.25 Q 41.54 -11.09 41.39 -10.79 Q 41.24 -10.49 41.1 -10.05 L 41.1 -10.05 Q 40.85 -9.38 40.61 -9.17 Q 40.36 -8.95 39.91 -8.95 L 39.91 -8.95 Q 38.75 -8.95 38.75 -10.1 L 38.75 -10.1 Q 38.75 -11.2 39.93 -11.81 Q 41.1 -12.42 43.26 -12.42 L 43.26 -12.42 Q 45.56 -12.42 46.53 -11.6 Q 47.49 -10.79 47.49 -8.83 L 47.49 -8.83 L 47.49 -3.68 Q 47.49 -1.06 48.53 -1.06 L 48.53 -1.06 Q 48.85 -1.06 49.15 -1.14 Q 49.45 -1.22 49.66 -1.56 L 49.66 -1.56 L 49.98 -1.01 Q 49.7 -0.48 48.97 -0.13 Q 48.23 0.23 47.43 0.23 L 47.43 0.23 Q 46.41 0.23 45.92 -0.41 Q 45.42 -1.06 45.42 -2.23 L 45.42 -2.23 L 45.31 -2.23 Q 44.71 -1.1 43.65 -0.45 Q 42.6 0.21 41.31 0.21 L 41.31 0.21 Q 39.86 0.21 39.03 -0.53 Q 38.2 -1.26 38.2 -2.51 L 38.2 -2.51 Q 38.2 -3.06 38.4 -3.56 Q 38.59 -4.07 39.03 -4.53 Q 39.47 -4.99 40.18 -5.44 Q 40.89 -5.89 41.93 -6.35 L 41.93 -6.35 Z M 54.92 -6.69 L 54.92 -3.61 Q 54.92 -2.67 54.97 -2.13 Q 55.02 -1.59 55.21 -1.3 Q 55.41 -1.01 55.79 -0.92 Q 56.17 -0.83 56.83 -0.78 L 56.83 -0.78 L 56.83 0 L 50.81 0 L 50.81 -0.78 Q 51.45 -0.83 51.83 -0.92 Q 52.21 -1.01 52.42 -1.29 Q 52.62 -1.56 52.68 -2.07 Q 52.74 -2.58 52.74 -3.45 L 52.74 -3.45 L 52.74 -6.51 Q 52.74 -9.25 52.6 -9.84 L 52.6 -9.84 Q 52.53 -10.14 52.43 -10.34 Q 52.32 -10.53 52.12 -10.64 Q 51.91 -10.74 51.59 -10.78 Q 51.27 -10.81 50.76 -10.81 L 50.76 -10.81 L 50.76 -11.55 L 54.44 -12.42 L 54.72 -10.14 L 54.81 -10.14 Q 55.68 -11.22 56.86 -11.82 Q 58.03 -12.42 59.41 -12.42 L 59.41 -12.42 Q 60.47 -12.42 61.34 -12.07 Q 62.21 -11.73 62.67 -11.13 L 62.67 -11.13 Q 63.07 -10.6 63.23 -9.76 Q 63.39 -8.92 63.39 -7.45 L 63.39 -7.45 L 63.39 -3.61 Q 63.39 -2.67 63.45 -2.13 Q 63.5 -1.59 63.69 -1.3 Q 63.87 -1.01 64.25 -0.92 Q 64.63 -0.83 65.25 -0.78 L 65.25 -0.78 L 65.25 0 L 59.29 0 L 59.29 -0.78 Q 59.94 -0.8 60.32 -0.91 Q 60.7 -1.01 60.89 -1.29 Q 61.09 -1.56 61.15 -2.08 Q 61.2 -2.6 61.2 -3.45 L 61.2 -3.45 L 61.2 -6.49 Q 61.2 -7.8 61.06 -8.69 Q 60.93 -9.59 60.62 -10.14 Q 60.31 -10.7 59.8 -10.94 Q 59.29 -11.18 58.58 -11.18 L 58.58 -11.18 Q 57.55 -11.18 56.68 -10.64 Q 55.82 -10.1 55.34 -9.15 L 55.34 -9.15 Q 55.22 -8.92 55.14 -8.72 Q 55.06 -8.51 55.02 -8.23 Q 54.97 -7.96 54.95 -7.6 Q 54.92 -7.25 54.92 -6.69 L 54.92 -6.69 Z M 68.1 -10.74 L 66.72 -10.74 L 66.72 -11.59 Q 67.94 -12.3 68.63 -13.02 Q 69.32 -13.73 69.69 -14.72 L 69.69 -14.72 L 70.36 -14.72 L 70.36 -11.82 L 73.44 -11.82 L 73.44 -10.74 L 70.36 -10.74 L 70.36 -3.75 Q 70.36 -2.94 70.44 -2.39 Q 70.52 -1.84 70.7 -1.51 Q 70.89 -1.17 71.19 -1.03 Q 71.48 -0.9 71.94 -0.9 L 71.94 -0.9 Q 72.52 -0.9 72.92 -1.14 Q 73.32 -1.38 73.72 -1.96 L 73.72 -1.96 L 74.29 -1.52 Q 73.97 -0.67 73.17 -0.22 Q 72.38 0.23 71.21 0.23 L 71.21 0.23 Q 69.69 0.23 68.9 -0.49 Q 68.1 -1.22 68.1 -2.58 L 68.1 -2.58 L 68.1 -10.74 Z M 85.15 -6.26 L 85.15 -8.51 Q 85.15 -9.45 85.1 -9.99 Q 85.05 -10.53 84.86 -10.82 Q 84.66 -11.11 84.28 -11.21 Q 83.9 -11.32 83.24 -11.38 L 83.24 -11.38 L 83.24 -12.19 L 87.4 -12.19 L 87.4 -5.13 Q 87.4 -3.82 87.43 -2.99 Q 87.47 -2.16 87.54 -1.75 L 87.54 -1.75 Q 87.58 -1.45 87.69 -1.28 Q 87.79 -1.1 88 -1 Q 88.2 -0.9 88.54 -0.86 Q 88.87 -0.83 89.4 -0.83 L 89.4 -0.83 L 89.4 -0.02 L 85.61 0.25 L 85.35 -2.51 L 85.26 -2.51 Q 84.39 -1.08 83.25 -0.43 Q 82.11 0.23 80.87 0.23 L 80.87 0.23 Q 79.9 0.23 78.99 -0.14 Q 78.08 -0.51 77.63 -1.13 L 77.63 -1.13 Q 77.23 -1.63 77.06 -2.53 Q 76.89 -3.43 76.89 -4.85 L 76.89 -4.85 L 76.89 -8.51 Q 76.89 -9.45 76.84 -9.99 Q 76.8 -10.53 76.6 -10.82 Q 76.41 -11.11 76.03 -11.21 Q 75.65 -11.32 74.98 -11.38 L 74.98 -11.38 L 74.98 -12.19 L 79.14 -12.19 L 79.14 -5.91 Q 79.14 -3.4 79.73 -2.28 Q 80.32 -1.15 81.6 -1.15 L 81.6 -1.15 Q 83.63 -1.15 84.75 -3.79 L 84.75 -3.79 Q 84.87 -4.07 84.94 -4.3 Q 85.01 -4.53 85.05 -4.81 Q 85.1 -5.08 85.12 -5.43 Q 85.15 -5.77 85.15 -6.26 L 85.15 -6.26 Z M 94.99 -6.6 L 94.99 -3.68 Q 94.99 -2.71 95.04 -2.16 Q 95.08 -1.61 95.28 -1.32 Q 95.47 -1.03 95.84 -0.94 Q 96.21 -0.85 96.88 -0.8 L 96.88 -0.8 L 96.88 0 L 90.76 0 L 90.76 -0.8 Q 91.42 -0.85 91.82 -0.94 Q 92.21 -1.03 92.41 -1.31 Q 92.62 -1.59 92.68 -2.1 Q 92.74 -2.62 92.74 -3.5 L 92.74 -3.5 L 92.74 -6.44 Q 92.74 -7.75 92.7 -8.63 Q 92.67 -9.5 92.58 -9.82 L 92.58 -9.82 Q 92.51 -10.12 92.41 -10.29 Q 92.32 -10.46 92.11 -10.57 Q 91.91 -10.67 91.57 -10.71 Q 91.24 -10.74 90.71 -10.74 L 90.71 -10.74 L 90.71 -11.55 L 94.46 -12.42 L 94.76 -10.12 L 94.88 -10.12 Q 95.91 -11.29 97.05 -11.86 Q 98.19 -12.42 99.57 -12.42 L 99.57 -12.42 Q 101.02 -12.42 102 -11.83 Q 102.99 -11.25 103.38 -10.14 L 103.38 -10.14 L 103.48 -10.14 Q 104.33 -11.22 105.55 -11.82 Q 106.77 -12.42 108.15 -12.42 L 108.15 -12.42 Q 109.23 -12.42 110.11 -12.06 Q 111 -11.71 111.46 -11.09 L 111.46 -11.09 Q 111.87 -10.56 112.04 -9.69 Q 112.22 -8.83 112.22 -7.34 L 112.22 -7.34 L 112.22 -3.68 Q 112.22 -2.74 112.27 -2.19 Q 112.33 -1.63 112.52 -1.33 Q 112.7 -1.03 113.08 -0.94 Q 113.46 -0.85 114.13 -0.8 L 114.13 -0.8 L 114.13 0 L 108.01 0 L 108.01 -0.8 Q 108.65 -0.83 109.04 -0.93 Q 109.43 -1.03 109.64 -1.32 Q 109.85 -1.61 109.91 -2.12 Q 109.96 -2.62 109.96 -3.5 L 109.96 -3.5 L 109.96 -6.39 Q 109.96 -7.71 109.82 -8.61 Q 109.69 -9.52 109.36 -10.09 Q 109.04 -10.65 108.53 -10.9 Q 108.01 -11.15 107.27 -11.15 L 107.27 -11.15 Q 106.26 -11.15 105.37 -10.59 Q 104.49 -10.03 103.98 -9.08 L 103.98 -9.08 Q 103.87 -8.86 103.79 -8.64 Q 103.71 -8.42 103.66 -8.15 Q 103.61 -7.89 103.6 -7.52 Q 103.59 -7.15 103.59 -6.6 L 103.59 -6.6 L 103.59 -3.68 Q 103.59 -2.74 103.64 -2.19 Q 103.68 -1.63 103.88 -1.33 Q 104.07 -1.03 104.47 -0.94 Q 104.86 -0.85 105.52 -0.8 L 105.52 -0.8 L 105.52 0 L 99.41 0 L 99.41 -0.8 Q 100.05 -0.85 100.44 -0.94 Q 100.83 -1.03 101.03 -1.31 Q 101.22 -1.59 101.28 -2.1 Q 101.34 -2.62 101.34 -3.5 L 101.34 -3.5 L 101.34 -6.39 Q 101.34 -7.73 101.2 -8.64 Q 101.06 -9.54 100.75 -10.11 Q 100.44 -10.67 99.94 -10.91 Q 99.43 -11.15 98.69 -11.15 L 98.69 -11.15 Q 97.66 -11.15 96.75 -10.59 Q 95.84 -10.03 95.38 -9.08 L 95.38 -9.08 Q 95.27 -8.86 95.19 -8.64 Q 95.1 -8.42 95.06 -8.15 Q 95.01 -7.89 95 -7.52 Q 94.99 -7.15 94.99 -6.6 L 94.99 -6.6 Z M 127.17 -13.36 L 127.17 -4.35 Q 127.17 -3.2 127.26 -2.53 Q 127.35 -1.86 127.62 -1.49 Q 127.88 -1.13 128.37 -1.01 Q 128.87 -0.9 129.67 -0.87 L 129.67 -0.87 L 129.67 0 L 122.22 0 L 122.22 -0.87 Q 123.03 -0.9 123.52 -1.02 Q 124.02 -1.15 124.29 -1.49 Q 124.57 -1.84 124.66 -2.47 Q 124.75 -3.1 124.75 -4.19 L 124.75 -4.19 L 124.75 -13.52 Q 124.75 -14.49 124.67 -15.12 Q 124.59 -15.75 124.35 -16.12 Q 124.11 -16.49 123.65 -16.64 Q 123.19 -16.79 122.45 -16.84 L 122.45 -16.84 L 122.45 -17.71 L 129.44 -17.71 L 129.44 -16.84 Q 128.71 -16.81 128.26 -16.65 Q 127.81 -16.49 127.57 -16.11 Q 127.33 -15.73 127.25 -15.06 Q 127.17 -14.4 127.17 -13.36 L 127.17 -13.36 Z M 135.7 -6.69 L 135.7 -3.61 Q 135.7 -2.67 135.75 -2.13 Q 135.79 -1.59 135.99 -1.3 Q 136.18 -1.01 136.56 -0.92 Q 136.94 -0.83 137.61 -0.78 L 137.61 -0.78 L 137.61 0 L 131.58 0 L 131.58 -0.78 Q 132.23 -0.83 132.61 -0.92 Q 132.99 -1.01 133.19 -1.29 Q 133.4 -1.56 133.46 -2.07 Q 133.51 -2.58 133.51 -3.45 L 133.51 -3.45 L 133.51 -6.51 Q 133.51 -9.25 133.38 -9.84 L 133.38 -9.84 Q 133.31 -10.14 133.2 -10.34 Q 133.1 -10.53 132.89 -10.64 Q 132.69 -10.74 132.37 -10.78 Q 132.04 -10.81 131.54 -10.81 L 131.54 -10.81 L 131.54 -11.55 L 135.22 -12.42 L 135.49 -10.14 L 135.59 -10.14 Q 136.46 -11.22 137.63 -11.82 Q 138.81 -12.42 140.19 -12.42 L 140.19 -12.42 Q 141.24 -12.42 142.12 -12.07 Q 142.99 -11.73 143.45 -11.13 L 143.45 -11.13 Q 143.84 -10.6 144 -9.76 Q 144.16 -8.92 144.16 -7.45 L 144.16 -7.45 L 144.16 -3.61 Q 144.16 -2.67 144.22 -2.13 Q 144.28 -1.59 144.46 -1.3 Q 144.65 -1.01 145.03 -0.92 Q 145.41 -0.83 146.03 -0.78 L 146.03 -0.78 L 146.03 0 L 140.07 0 L 140.07 -0.78 Q 140.71 -0.8 141.09 -0.91 Q 141.47 -1.01 141.67 -1.29 Q 141.86 -1.56 141.92 -2.08 Q 141.98 -2.6 141.98 -3.45 L 141.98 -3.45 L 141.98 -6.49 Q 141.98 -7.8 141.84 -8.69 Q 141.7 -9.59 141.39 -10.14 Q 141.08 -10.7 140.58 -10.94 Q 140.07 -11.18 139.36 -11.18 L 139.36 -11.18 Q 138.32 -11.18 137.46 -10.64 Q 136.6 -10.1 136.11 -9.15 L 136.11 -9.15 Q 136 -8.92 135.92 -8.72 Q 135.84 -8.51 135.79 -8.23 Q 135.75 -7.96 135.72 -7.6 Q 135.7 -7.25 135.7 -6.69 L 135.7 -6.69 Z M 147.09 -10.74 L 147.09 -11.82 L 149.68 -11.82 L 149.68 -13.48 Q 149.68 -16.12 151.08 -17.61 Q 152.47 -19.09 155.04 -19.09 L 155.04 -19.09 Q 156.47 -19.09 157.37 -18.65 Q 158.26 -18.22 158.26 -17.53 L 158.26 -17.53 Q 158.26 -17.07 157.98 -16.76 Q 157.69 -16.45 157.25 -16.45 L 157.25 -16.45 Q 156.97 -16.45 156.66 -16.62 Q 156.35 -16.79 155.85 -17.2 L 155.85 -17.2 Q 155.27 -17.69 154.95 -17.84 Q 154.63 -17.99 154.19 -17.99 L 154.19 -17.99 Q 152.81 -17.99 152.21 -16.58 L 152.21 -16.58 Q 152.01 -16.12 151.93 -15.46 Q 151.85 -14.79 151.85 -13.62 L 151.85 -13.62 L 151.85 -11.82 L 155.55 -11.82 L 155.55 -10.74 L 151.85 -10.74 L 151.85 -3.7 Q 151.85 -2.85 151.95 -2.3 Q 152.05 -1.75 152.32 -1.41 Q 152.58 -1.08 153.04 -0.95 Q 153.5 -0.83 154.24 -0.8 L 154.24 -0.8 L 154.24 0 L 147.71 0 L 147.71 -0.8 Q 148.35 -0.83 148.74 -0.93 Q 149.13 -1.03 149.34 -1.32 Q 149.55 -1.61 149.62 -2.13 Q 149.68 -2.65 149.68 -3.52 L 149.68 -3.52 L 149.68 -10.74 L 147.09 -10.74 Z M 163.25 -12.42 L 163.25 -12.42 Q 164.56 -12.42 165.74 -11.95 Q 166.91 -11.48 167.8 -10.65 Q 168.68 -9.82 169.2 -8.68 Q 169.72 -7.54 169.72 -6.19 L 169.72 -6.19 Q 169.72 -4.78 169.2 -3.61 Q 168.68 -2.44 167.8 -1.59 Q 166.91 -0.74 165.74 -0.25 Q 164.56 0.23 163.25 0.23 L 163.25 0.23 Q 161.97 0.23 160.8 -0.24 Q 159.64 -0.71 158.77 -1.56 Q 157.9 -2.42 157.39 -3.6 Q 156.88 -4.78 156.88 -6.19 L 156.88 -6.19 Q 156.88 -7.54 157.39 -8.69 Q 157.9 -9.84 158.77 -10.67 Q 159.64 -11.5 160.8 -11.96 Q 161.97 -12.42 163.25 -12.42 Z M 163.25 -11.32 L 163.25 -11.32 Q 162.4 -11.32 161.7 -10.95 Q 161 -10.58 160.51 -9.9 Q 160.01 -9.22 159.75 -8.27 Q 159.48 -7.31 159.48 -6.16 L 159.48 -6.16 Q 159.48 -4.97 159.75 -4 Q 160.01 -3.04 160.51 -2.36 Q 161 -1.68 161.69 -1.31 Q 162.38 -0.94 163.25 -0.94 L 163.25 -0.94 Q 164.13 -0.94 164.84 -1.31 Q 165.55 -1.68 166.06 -2.37 Q 166.57 -3.06 166.84 -4.03 Q 167.12 -4.99 167.12 -6.16 L 167.12 -6.16 Q 167.12 -7.31 166.84 -8.26 Q 166.57 -9.2 166.06 -9.88 Q 165.55 -10.56 164.84 -10.94 Q 164.13 -11.32 163.25 -11.32 Z M 175.93 -4.44 L 175.93 -3.66 Q 175.93 -2.71 175.97 -2.16 Q 176.02 -1.61 176.21 -1.32 Q 176.41 -1.03 176.78 -0.94 Q 177.15 -0.85 177.81 -0.8 L 177.81 -0.8 L 177.81 0 L 171.69 0 L 171.69 -0.8 Q 172.36 -0.83 172.75 -0.93 Q 173.14 -1.03 173.35 -1.31 Q 173.56 -1.59 173.62 -2.1 Q 173.67 -2.62 173.67 -3.5 L 173.67 -3.5 L 173.67 -6.19 Q 173.67 -7.75 173.64 -8.63 Q 173.6 -9.5 173.41 -9.91 Q 173.21 -10.33 172.8 -10.41 Q 172.38 -10.49 171.65 -10.49 L 171.65 -10.49 L 171.65 -11.29 L 175.67 -12.17 L 176 -9.31 L 176.09 -9.31 Q 176.39 -10 176.84 -10.58 Q 177.28 -11.15 177.81 -11.56 Q 178.34 -11.96 178.92 -12.19 Q 179.49 -12.42 180.09 -12.42 L 180.09 -12.42 Q 180.83 -12.42 181.25 -12.06 Q 181.68 -11.71 181.68 -11.11 L 181.68 -11.11 Q 181.68 -10.56 181.33 -10.25 Q 180.99 -9.94 180.34 -9.94 L 180.34 -9.94 Q 179.97 -9.94 179.72 -10.03 Q 179.47 -10.12 179.27 -10.22 Q 179.08 -10.33 178.91 -10.42 Q 178.73 -10.51 178.53 -10.51 L 178.53 -10.51 Q 177.91 -10.51 177.28 -9.72 Q 176.66 -8.92 176.32 -7.71 L 176.32 -7.71 Q 176.13 -7.04 176.03 -6.2 Q 175.93 -5.36 175.93 -4.44 L 175.93 -4.44 Z M 186.88 -6.6 L 186.88 -3.68 Q 186.88 -2.71 186.92 -2.16 Q 186.97 -1.61 187.16 -1.32 Q 187.36 -1.03 187.73 -0.94 Q 188.09 -0.85 188.76 -0.8 L 188.76 -0.8 L 188.76 0 L 182.64 0 L 182.64 -0.8 Q 183.31 -0.85 183.7 -0.94 Q 184.09 -1.03 184.3 -1.31 Q 184.51 -1.59 184.56 -2.1 Q 184.62 -2.62 184.62 -3.5 L 184.62 -3.5 L 184.62 -6.44 Q 184.62 -7.75 184.59 -8.63 Q 184.55 -9.5 184.46 -9.82 L 184.46 -9.82 Q 184.39 -10.12 184.3 -10.29 Q 184.21 -10.46 184 -10.57 Q 183.79 -10.67 183.46 -10.71 Q 183.13 -10.74 182.6 -10.74 L 182.6 -10.74 L 182.6 -11.55 L 186.35 -12.42 L 186.65 -10.12 L 186.76 -10.12 Q 187.8 -11.29 188.93 -11.86 Q 190.07 -12.42 191.45 -12.42 L 191.45 -12.42 Q 192.9 -12.42 193.89 -11.83 Q 194.88 -11.25 195.27 -10.14 L 195.27 -10.14 L 195.36 -10.14 Q 196.21 -11.22 197.43 -11.82 Q 198.65 -12.42 200.03 -12.42 L 200.03 -12.42 Q 201.11 -12.42 202 -12.06 Q 202.88 -11.71 203.34 -11.09 L 203.34 -11.09 Q 203.76 -10.56 203.93 -9.69 Q 204.1 -8.83 204.1 -7.34 L 204.1 -7.34 L 204.1 -3.68 Q 204.1 -2.74 204.16 -2.19 Q 204.22 -1.63 204.4 -1.33 Q 204.59 -1.03 204.96 -0.94 Q 205.34 -0.85 206.01 -0.8 L 206.01 -0.8 L 206.01 0 L 199.89 0 L 199.89 -0.8 Q 200.54 -0.83 200.93 -0.93 Q 201.32 -1.03 201.53 -1.32 Q 201.73 -1.61 201.79 -2.12 Q 201.85 -2.62 201.85 -3.5 L 201.85 -3.5 L 201.85 -6.39 Q 201.85 -7.71 201.71 -8.61 Q 201.57 -9.52 201.25 -10.09 Q 200.93 -10.65 200.41 -10.9 Q 199.89 -11.15 199.16 -11.15 L 199.16 -11.15 Q 198.15 -11.15 197.26 -10.59 Q 196.37 -10.03 195.87 -9.08 L 195.87 -9.08 Q 195.75 -8.86 195.67 -8.64 Q 195.59 -8.42 195.55 -8.15 Q 195.5 -7.89 195.49 -7.52 Q 195.48 -7.15 195.48 -6.6 L 195.48 -6.6 L 195.48 -3.68 Q 195.48 -2.74 195.52 -2.19 Q 195.57 -1.63 195.76 -1.33 Q 195.96 -1.03 196.35 -0.94 Q 196.74 -0.85 197.41 -0.8 L 197.41 -0.8 L 197.41 0 L 191.29 0 L 191.29 -0.8 Q 191.94 -0.85 192.33 -0.94 Q 192.72 -1.03 192.91 -1.31 Q 193.11 -1.59 193.17 -2.1 Q 193.22 -2.62 193.22 -3.5 L 193.22 -3.5 L 193.22 -6.39 Q 193.22 -7.73 193.09 -8.64 Q 192.95 -9.54 192.64 -10.11 Q 192.33 -10.67 191.82 -10.91 Q 191.31 -11.15 190.58 -11.15 L 190.58 -11.15 Q 189.54 -11.15 188.63 -10.59 Q 187.73 -10.03 187.27 -9.08 L 187.27 -9.08 Q 187.15 -8.86 187.07 -8.64 Q 186.99 -8.42 186.94 -8.15 Q 186.9 -7.89 186.89 -7.52 Q 186.88 -7.15 186.88 -6.6 L 186.88 -6.6 Z M 214.5 -4.99 L 214.5 -6.81 Q 213.19 -6.3 212.28 -5.82 Q 211.37 -5.34 210.82 -4.85 Q 210.27 -4.37 210.02 -3.89 Q 209.78 -3.4 209.78 -2.9 L 209.78 -2.9 Q 209.78 -2.14 210.29 -1.66 Q 210.8 -1.17 211.62 -1.17 L 211.62 -1.17 Q 212.22 -1.17 212.74 -1.47 Q 213.26 -1.77 213.65 -2.29 Q 214.04 -2.81 214.27 -3.51 Q 214.5 -4.21 214.5 -4.99 L 214.5 -4.99 Z M 211.19 -6.35 L 214.5 -7.8 L 214.5 -8.74 Q 214.5 -11.55 212.11 -11.55 L 212.11 -11.55 Q 211.72 -11.55 211.44 -11.48 Q 211.16 -11.41 210.98 -11.25 Q 210.8 -11.09 210.65 -10.79 Q 210.5 -10.49 210.36 -10.05 L 210.36 -10.05 Q 210.1 -9.38 209.86 -9.17 Q 209.62 -8.95 209.16 -8.95 L 209.16 -8.95 Q 208.01 -8.95 208.01 -10.1 L 208.01 -10.1 Q 208.01 -11.2 209.19 -11.81 Q 210.36 -12.42 212.52 -12.42 L 212.52 -12.42 Q 214.82 -12.42 215.79 -11.6 Q 216.75 -10.79 216.75 -8.83 L 216.75 -8.83 L 216.75 -3.68 Q 216.75 -1.06 217.79 -1.06 L 217.79 -1.06 Q 218.11 -1.06 218.41 -1.14 Q 218.71 -1.22 218.91 -1.56 L 218.91 -1.56 L 219.24 -1.01 Q 218.96 -0.48 218.22 -0.13 Q 217.49 0.23 216.68 0.23 L 216.68 0.23 Q 215.67 0.23 215.18 -0.41 Q 214.68 -1.06 214.68 -2.23 L 214.68 -2.23 L 214.57 -2.23 Q 213.97 -1.1 212.91 -0.45 Q 211.85 0.21 210.56 0.21 L 210.56 0.21 Q 209.12 0.21 208.29 -0.53 Q 207.46 -1.26 207.46 -2.51 L 207.46 -2.51 Q 207.46 -3.06 207.66 -3.56 Q 207.85 -4.07 208.29 -4.53 Q 208.72 -4.99 209.44 -5.44 Q 210.15 -5.89 211.19 -6.35 L 211.19 -6.35 Z M 221.51 -10.74 L 220.13 -10.74 L 220.13 -11.59 Q 221.35 -12.3 222.04 -13.02 Q 222.73 -13.73 223.1 -14.72 L 223.1 -14.72 L 223.77 -14.72 L 223.77 -11.82 L 226.85 -11.82 L 226.85 -10.74 L 223.77 -10.74 L 223.77 -3.75 Q 223.77 -2.94 223.85 -2.39 Q 223.93 -1.84 224.11 -1.51 Q 224.3 -1.17 224.59 -1.03 Q 224.89 -0.9 225.35 -0.9 L 225.35 -0.9 Q 225.93 -0.9 226.33 -1.14 Q 226.73 -1.38 227.13 -1.96 L 227.13 -1.96 L 227.7 -1.52 Q 227.38 -0.67 226.58 -0.22 Q 225.79 0.23 224.62 0.23 L 224.62 0.23 Q 223.1 0.23 222.31 -0.49 Q 221.51 -1.22 221.51 -2.58 L 221.51 -2.58 L 221.51 -10.74 Z M 233.15 -12.42 L 233.15 -3.66 Q 233.15 -2.76 233.23 -2.22 Q 233.31 -1.68 233.54 -1.37 Q 233.77 -1.06 234.19 -0.94 Q 234.6 -0.83 235.29 -0.8 L 235.29 -0.8 L 235.29 0 L 228.69 0 L 228.69 -0.8 Q 229.38 -0.83 229.82 -0.95 Q 230.25 -1.08 230.49 -1.37 Q 230.74 -1.66 230.82 -2.17 Q 230.9 -2.69 230.9 -3.5 L 230.9 -3.5 L 230.9 -6.44 Q 230.9 -7.77 230.86 -8.64 Q 230.83 -9.5 230.74 -9.82 L 230.74 -9.82 Q 230.62 -10.35 230.21 -10.55 Q 229.79 -10.74 228.64 -10.74 L 228.64 -10.74 L 228.64 -11.55 L 233.15 -12.42 Z M 230.51 -17.09 L 230.51 -17.09 Q 230.51 -17.69 230.92 -18.1 Q 231.33 -18.52 231.93 -18.52 L 231.93 -18.52 Q 232.53 -18.52 232.94 -18.1 Q 233.36 -17.69 233.36 -17.09 L 233.36 -17.09 Q 233.36 -16.49 232.94 -16.08 Q 232.53 -15.66 231.93 -15.66 L 231.93 -15.66 Q 231.33 -15.66 230.92 -16.08 Q 230.51 -16.49 230.51 -17.09 Z M 243.22 -12.42 L 243.22 -12.42 Q 244.54 -12.42 245.71 -11.95 Q 246.88 -11.48 247.77 -10.65 Q 248.65 -9.82 249.17 -8.68 Q 249.69 -7.54 249.69 -6.19 L 249.69 -6.19 Q 249.69 -4.78 249.17 -3.61 Q 248.65 -2.44 247.77 -1.59 Q 246.88 -0.74 245.71 -0.25 Q 244.54 0.23 243.22 0.23 L 243.22 0.23 Q 241.94 0.23 240.78 -0.24 Q 239.61 -0.71 238.74 -1.56 Q 237.87 -2.42 237.36 -3.6 Q 236.85 -4.78 236.85 -6.19 L 236.85 -6.19 Q 236.85 -7.54 237.36 -8.69 Q 237.87 -9.84 238.74 -10.67 Q 239.61 -11.5 240.78 -11.96 Q 241.94 -12.42 243.22 -12.42 Z M 243.22 -11.32 L 243.22 -11.32 Q 242.37 -11.32 241.67 -10.95 Q 240.97 -10.58 240.48 -9.9 Q 239.98 -9.22 239.72 -8.27 Q 239.45 -7.31 239.45 -6.16 L 239.45 -6.16 Q 239.45 -4.97 239.72 -4 Q 239.98 -3.04 240.48 -2.36 Q 240.97 -1.68 241.66 -1.31 Q 242.35 -0.94 243.22 -0.94 L 243.22 -0.94 Q 244.1 -0.94 244.81 -1.31 Q 245.52 -1.68 246.03 -2.37 Q 246.54 -3.06 246.81 -4.03 Q 247.09 -4.99 247.09 -6.16 L 247.09 -6.16 Q 247.09 -7.31 246.81 -8.26 Q 246.54 -9.2 246.03 -9.88 Q 245.52 -10.56 244.81 -10.94 Q 244.1 -11.32 243.22 -11.32 Z M 255.76 -6.69 L 255.76 -3.61 Q 255.76 -2.67 255.81 -2.13 Q 255.85 -1.59 256.05 -1.3 Q 256.24 -1.01 256.62 -0.92 Q 257 -0.83 257.67 -0.78 L 257.67 -0.78 L 257.67 0 L 251.64 0 L 251.64 -0.78 Q 252.29 -0.83 252.67 -0.92 Q 253.05 -1.01 253.25 -1.29 Q 253.46 -1.56 253.52 -2.07 Q 253.57 -2.58 253.57 -3.45 L 253.57 -3.45 L 253.57 -6.51 Q 253.57 -9.25 253.44 -9.84 L 253.44 -9.84 Q 253.37 -10.14 253.26 -10.34 Q 253.16 -10.53 252.95 -10.64 Q 252.75 -10.74 252.42 -10.78 Q 252.1 -10.81 251.6 -10.81 L 251.6 -10.81 L 251.6 -11.55 L 255.28 -12.42 L 255.55 -10.14 L 255.64 -10.14 Q 256.52 -11.22 257.69 -11.82 Q 258.86 -12.42 260.24 -12.42 L 260.24 -12.42 Q 261.3 -12.42 262.18 -12.07 Q 263.05 -11.73 263.51 -11.13 L 263.51 -11.13 Q 263.9 -10.6 264.06 -9.76 Q 264.22 -8.92 264.22 -7.45 L 264.22 -7.45 L 264.22 -3.61 Q 264.22 -2.67 264.28 -2.13 Q 264.34 -1.59 264.52 -1.3 Q 264.71 -1.01 265.09 -0.92 Q 265.47 -0.83 266.09 -0.78 L 266.09 -0.78 L 266.09 0 L 260.13 0 L 260.13 -0.78 Q 260.77 -0.8 261.15 -0.91 Q 261.53 -1.01 261.73 -1.29 Q 261.92 -1.56 261.98 -2.08 Q 262.04 -2.6 262.04 -3.45 L 262.04 -3.45 L 262.04 -6.49 Q 262.04 -7.8 261.9 -8.69 Q 261.76 -9.59 261.45 -10.14 Q 261.14 -10.7 260.64 -10.94 Q 260.13 -11.18 259.42 -11.18 L 259.42 -11.18 Q 258.38 -11.18 257.52 -10.64 Q 256.66 -10.1 256.17 -9.15 L 256.17 -9.15 Q 256.06 -8.92 255.98 -8.72 Q 255.9 -8.51 255.85 -8.23 Q 255.81 -7.96 255.78 -7.6 Q 255.76 -7.25 255.76 -6.69 L 255.76 -6.69 Z M 274.92 -0.25 L 274.57 -5.41 L 275.42 -5.41 Q 275.59 -4.37 276.03 -3.54 Q 276.48 -2.71 277.16 -2.14 Q 277.84 -1.56 278.73 -1.25 Q 279.61 -0.94 280.65 -0.94 L 280.65 -0.94 Q 282.35 -0.94 283.34 -1.75 Q 284.33 -2.55 284.33 -3.93 L 284.33 -3.93 Q 284.33 -4.51 284.13 -4.99 Q 283.93 -5.47 283.47 -5.92 Q 283.01 -6.37 282.24 -6.81 Q 281.47 -7.25 280.3 -7.75 L 280.3 -7.75 Q 278.87 -8.37 277.91 -8.95 Q 276.94 -9.52 276.37 -10.14 Q 275.79 -10.76 275.55 -11.47 Q 275.31 -12.17 275.31 -13.06 L 275.31 -13.06 Q 275.31 -14.12 275.69 -15.02 Q 276.07 -15.92 276.76 -16.57 Q 277.45 -17.23 278.39 -17.58 Q 279.33 -17.94 280.46 -17.94 L 280.46 -17.94 Q 281.47 -17.94 282.35 -17.62 Q 283.22 -17.3 284.12 -16.58 L 284.12 -16.58 L 284.72 -17.62 L 285.25 -17.62 L 285.5 -13.04 L 284.65 -13.04 Q 284.1 -14.93 283.05 -15.85 Q 282 -16.77 280.53 -16.77 L 280.53 -16.77 Q 279.13 -16.77 278.3 -16.08 Q 277.47 -15.39 277.47 -14.21 L 277.47 -14.21 Q 277.47 -13.66 277.66 -13.21 Q 277.84 -12.77 278.25 -12.36 Q 278.67 -11.96 279.33 -11.56 Q 280 -11.15 280.99 -10.72 L 280.99 -10.72 Q 282.69 -9.96 283.82 -9.3 Q 284.95 -8.65 285.61 -7.99 Q 286.28 -7.34 286.56 -6.61 Q 286.83 -5.89 286.83 -4.99 L 286.83 -4.99 Q 286.83 -3.84 286.37 -2.88 Q 285.91 -1.91 285.08 -1.22 Q 284.26 -0.53 283.11 -0.15 Q 281.96 0.23 280.58 0.23 L 280.58 0.23 Q 279.27 0.23 278.22 -0.14 Q 277.17 -0.51 276.09 -1.38 L 276.09 -1.38 L 275.45 -0.25 L 274.92 -0.25 Z M 295.55 -12.42 L 295.55 -12.42 Q 296.86 -12.42 298.03 -11.95 Q 299.21 -11.48 300.09 -10.65 Q 300.98 -9.82 301.5 -8.68 Q 302.01 -7.54 302.01 -6.19 L 302.01 -6.19 Q 302.01 -4.78 301.5 -3.61 Q 300.98 -2.44 300.09 -1.59 Q 299.21 -0.74 298.03 -0.25 Q 296.86 0.23 295.55 0.23 L 295.55 0.23 Q 294.26 0.23 293.1 -0.24 Q 291.94 -0.71 291.06 -1.56 Q 290.19 -2.42 289.68 -3.6 Q 289.18 -4.78 289.18 -6.19 L 289.18 -6.19 Q 289.18 -7.54 289.68 -8.69 Q 290.19 -9.84 291.06 -10.67 Q 291.94 -11.5 293.1 -11.96 Q 294.26 -12.42 295.55 -12.42 Z M 295.55 -11.32 L 295.55 -11.32 Q 294.7 -11.32 294 -10.95 Q 293.3 -10.58 292.8 -9.9 Q 292.31 -9.22 292.04 -8.27 Q 291.78 -7.31 291.78 -6.16 L 291.78 -6.16 Q 291.78 -4.97 292.04 -4 Q 292.31 -3.04 292.8 -2.36 Q 293.3 -1.68 293.99 -1.31 Q 294.68 -0.94 295.55 -0.94 L 295.55 -0.94 Q 296.42 -0.94 297.14 -1.31 Q 297.85 -1.68 298.36 -2.37 Q 298.86 -3.06 299.14 -4.03 Q 299.41 -4.99 299.41 -6.16 L 299.41 -6.16 Q 299.41 -7.31 299.14 -8.26 Q 298.86 -9.2 298.36 -9.88 Q 297.85 -10.56 297.14 -10.94 Q 296.42 -11.32 295.55 -11.32 Z M 314.06 -2.58 L 314.75 -1.91 Q 313.93 -0.9 312.62 -0.33 Q 311.3 0.23 309.79 0.23 L 309.79 0.23 Q 308.57 0.23 307.54 -0.22 Q 306.52 -0.67 305.78 -1.48 Q 305.05 -2.3 304.65 -3.45 Q 304.24 -4.6 304.24 -6 L 304.24 -6 Q 304.24 -7.47 304.7 -8.66 Q 305.16 -9.84 306 -10.68 Q 306.84 -11.52 308.03 -11.97 Q 309.21 -12.42 310.64 -12.42 L 310.64 -12.42 Q 311.53 -12.42 312.27 -12.27 Q 313.01 -12.12 313.55 -11.86 Q 314.09 -11.59 314.39 -11.21 Q 314.69 -10.83 314.69 -10.4 L 314.69 -10.4 Q 314.69 -9.94 314.39 -9.68 Q 314.09 -9.43 313.56 -9.43 L 313.56 -9.43 Q 313.14 -9.43 312.87 -9.6 Q 312.59 -9.78 312.16 -10.37 L 312.16 -10.37 Q 311.7 -10.9 311.27 -11.12 Q 310.84 -11.34 310.18 -11.34 L 310.18 -11.34 Q 308.54 -11.34 307.71 -10.07 Q 306.87 -8.81 306.87 -6.35 L 306.87 -6.35 Q 306.87 -3.7 307.8 -2.33 Q 308.73 -0.97 310.52 -0.97 L 310.52 -0.97 Q 311.49 -0.97 312.34 -1.35 Q 313.19 -1.72 314.06 -2.58 L 314.06 -2.58 Z M 320.69 -12.42 L 320.69 -3.66 Q 320.69 -2.76 320.77 -2.22 Q 320.85 -1.68 321.08 -1.37 Q 321.31 -1.06 321.72 -0.94 Q 322.14 -0.83 322.83 -0.8 L 322.83 -0.8 L 322.83 0 L 316.23 0 L 316.23 -0.8 Q 316.92 -0.83 317.35 -0.95 Q 317.79 -1.08 318.03 -1.37 Q 318.27 -1.66 318.35 -2.17 Q 318.43 -2.69 318.43 -3.5 L 318.43 -3.5 L 318.43 -6.44 Q 318.43 -7.77 318.4 -8.64 Q 318.37 -9.5 318.27 -9.82 L 318.27 -9.82 Q 318.16 -10.35 317.74 -10.55 Q 317.33 -10.74 316.18 -10.74 L 316.18 -10.74 L 316.18 -11.55 L 320.69 -12.42 Z M 318.04 -17.09 L 318.04 -17.09 Q 318.04 -17.69 318.46 -18.1 Q 318.87 -18.52 319.47 -18.52 L 319.47 -18.52 Q 320.07 -18.52 320.48 -18.1 Q 320.9 -17.69 320.9 -17.09 L 320.9 -17.09 Q 320.9 -16.49 320.48 -16.08 Q 320.07 -15.66 319.47 -15.66 L 319.47 -15.66 Q 318.87 -15.66 318.46 -16.08 Q 318.04 -16.49 318.04 -17.09 Z M 334.58 -2.78 L 335.29 -2.14 Q 333.34 0.23 330.44 0.23 L 330.44 0.23 Q 329.08 0.23 327.98 -0.22 Q 326.88 -0.67 326.08 -1.48 Q 325.29 -2.3 324.85 -3.44 Q 324.41 -4.58 324.41 -5.96 L 324.41 -5.96 Q 324.41 -7.36 324.87 -8.56 Q 325.33 -9.75 326.17 -10.6 Q 327.01 -11.45 328.18 -11.94 Q 329.34 -12.42 330.72 -12.42 L 330.72 -12.42 Q 332.95 -12.42 334.17 -11.21 Q 335.39 -10 335.39 -7.75 L 335.39 -7.75 Q 335.39 -7.43 335.26 -7.36 Q 335.13 -7.29 334.67 -7.29 L 334.67 -7.29 L 327.11 -7.29 Q 327.06 -7.11 327.04 -6.84 Q 327.01 -6.58 327.01 -6.26 L 327.01 -6.26 Q 327.01 -5.06 327.3 -4.08 Q 327.59 -3.1 328.13 -2.42 Q 328.67 -1.72 329.42 -1.35 Q 330.16 -0.97 331.08 -0.97 L 331.08 -0.97 Q 332.05 -0.97 332.88 -1.39 Q 333.71 -1.82 334.58 -2.78 L 334.58 -2.78 Z M 327.27 -8.35 L 331.5 -8.35 Q 331.96 -8.35 332.23 -8.37 Q 332.51 -8.39 332.65 -8.46 Q 332.79 -8.53 332.83 -8.66 Q 332.88 -8.79 332.88 -8.99 L 332.88 -8.99 Q 332.88 -10.05 332.2 -10.68 Q 331.52 -11.32 330.35 -11.32 L 330.35 -11.32 Q 327.86 -11.32 327.27 -8.35 L 327.27 -8.35 Z M 338.77 -10.74 L 337.39 -10.74 L 337.39 -11.59 Q 338.61 -12.3 339.3 -13.02 Q 339.99 -13.73 340.35 -14.72 L 340.35 -14.72 L 341.02 -14.72 L 341.02 -11.82 L 344.1 -11.82 L 344.1 -10.74 L 341.02 -10.74 L 341.02 -3.75 Q 341.02 -2.94 341.1 -2.39 Q 341.18 -1.84 341.37 -1.51 Q 341.55 -1.17 341.85 -1.03 Q 342.15 -0.9 342.61 -0.9 L 342.61 -0.9 Q 343.18 -0.9 343.59 -1.14 Q 343.99 -1.38 344.38 -1.96 L 344.38 -1.96 L 344.95 -1.52 Q 344.63 -0.67 343.84 -0.22 Q 343.04 0.23 341.87 0.23 L 341.87 0.23 Q 340.35 0.23 339.56 -0.49 Q 338.77 -1.22 338.77 -2.58 L 338.77 -2.58 L 338.77 -10.74 Z M 356.64 -7.54 L 351.62 3.61 Q 350.57 5.98 348.33 5.98 L 348.33 5.98 Q 346.89 5.98 346.89 4.9 L 346.89 4.9 Q 346.89 4.32 347.29 4.06 Q 347.69 3.79 348.77 3.61 L 348.77 3.61 Q 349.25 3.54 349.6 3.42 Q 349.94 3.29 350.22 3.09 Q 350.5 2.9 350.72 2.6 Q 350.93 2.3 351.14 1.86 L 351.14 1.86 L 351.95 0.25 L 347.53 -9.34 Q 347.23 -9.98 347.01 -10.36 Q 346.79 -10.74 346.55 -10.96 Q 346.31 -11.18 346.01 -11.26 Q 345.71 -11.34 345.25 -11.38 L 345.25 -11.38 L 345.25 -12.19 L 351.35 -12.19 L 351.35 -11.38 Q 349.81 -11.38 349.81 -10.63 L 349.81 -10.63 Q 349.81 -10.33 349.99 -9.68 Q 350.17 -9.04 350.45 -8.37 L 350.45 -8.37 L 352.98 -2.25 L 353.1 -2.25 L 355.19 -7.43 Q 355.49 -8.19 355.68 -8.67 Q 355.88 -9.15 355.98 -9.46 Q 356.09 -9.78 356.12 -9.98 Q 356.15 -10.19 356.15 -10.37 L 356.15 -10.37 Q 356.15 -10.97 355.82 -11.18 Q 355.49 -11.38 354.54 -11.38 L 354.54 -11.38 L 354.54 -12.19 L 359.6 -12.19 L 359.6 -11.38 Q 359.17 -11.38 358.87 -11.27 Q 358.57 -11.15 358.26 -10.75 Q 357.95 -10.35 357.57 -9.59 Q 357.19 -8.83 356.64 -7.54 L 356.64 -7.54 Z" stroke-linecap="round" />
</g>
<g transform="matrix(2.499604356312217 0 0 2.499604356312217 298.6010162195951 512.012312418764)" style="" id="shape-10-logo"  >
	<g transform="matrix(1 0 0 1 0 0)" id="Layer_1"  >
<linearGradient id="SVGID_208714" gradientUnits="userSpaceOnUse" gradientTransform="matrix(1 0 0 1 0 0)"  x1="0" y1="0" x2="0" y2="196">
<stop offset="0%" style="stop-color:rgb(23,234,217);stop-opacity: 1"/>
<stop offset="100%" style="stop-color:rgb(96,120,234);stop-opacity: 1"/>
</linearGradient>
<path style="stroke: none; stroke-width: 1; stroke-dasharray: none; stroke-linecap: butt; stroke-dashoffset: 0; stroke-linejoin: miter; stroke-miterlimit: 4; fill: url(#SVGID_208714); fill-rule: nonzero; opacity: 1;"  paint-order="stroke"  transform=" translate(-100, -98)" d="M 15.78 125.3 l 0.72 24.22 l 19.27 10.37 L 50 184.51 H 81.55 L 102.91 196 l 18.63 -11.49 H 150 l 15.78 -27.3 l 20.64 -12.73 l -0.65 -21.86 L 200 98 L 184.22 70.7 l -0.72 -24.22 L 164.23 36.12 L 150 11.49 H 118.45 L 97.09 0 L 78.47 11.49 H 50 L 34.22 38.78 L 13.58 51.52 l 0.65 21.85 L 0 98 Z M 198.29 98 l -12.61 21.81 l -1.36 -46 Z M 20.37 147.13 l -0.43 -14.64 L 32 153.39 Z M 50.85 183 l -12.6 -21.81 L 78.81 183 Z m 51.93 8.42 l -12.91 -6.94 H 114 Z M 149.15 183 H 123.93 l 39.19 -24.18 Z m 33.26 -40.71 L 169.93 150 L 182 129.11 Z m -2.78 -93.45 l 0.44 14.64 L 168 42.61 Z M 149.15 13 l 12.61 21.81 L 121.19 13 Z M 97.22 4.55 l 12.91 6.94 H 86 Z M 50.85 13 H 76.07 L 36.88 37.15 Z m 32.73 0 h 29.3 l 52.63 28.3 l 14.65 25.35 l 1.77 59.69 l -14.65 25.35 L 116.43 183 H 87.12 l -52.63 -28.3 L 19.84 129.38 L 18.07 69.69 L 32.72 44.34 Z M 30.06 46 L 18 66.88 l -0.39 -13.2 Z M 14.32 76.18 l 1.36 46 L 1.71 98 Z" stroke-linecap="round" />
</g>
</g>
</svg>